<svg xmlns="http://www.w3.org/2000/svg">
    <path d="M23.935 1.989C22.708 2.106 21.078 2.835 19.711 5.866 19.676 5.794 18.536 3.472 15.839 2.413 15.92 2.527 16.759 3.87 14.937 8.197 14.937 8.197 13.921 5.808 11.116 4.018 10.269 8.571 9.985 10.541 11.348 14.926 11.131 15.971 11.071 16.964 11.714 17.686 12.238 18.276 12.975 18.91 12.886 19.308 7.416 21.16 3.475 26.339 3.475 32.431 3.475 40.076 9.68 46.278 17.324 46.278 24.968 46.278 31.171 40.076 31.171 32.431 31.171 26.368 27.269 21.209 21.841 19.335 21.79 18.642 21.976 18.292 22.876 17.866 24.01 17.329 23.592 15.061 22.219 14.285 22.085 14.209 21.878 14.124 21.616 14.034 21.636 13.079 22.375 12.171 23.114 11.478 24.069 10.583 24.307 8.077 23.71 7.063 23.113 6.048 23.034 4.773 23.95 1.989 23.945 1.989 23.94 1.988 23.935 1.989zM17.444 5.212C18.817 7.062 18.518 9.986 19.174 10.046 19.831 10.105 20.19 6.703 21.861 5.33 22.816 7.777 23.412 9.39 21.681 10.882 19.95 12.374 20.111 13.328 20.069 14.403 20.029 15.421 19.951 15.957 18.578 16.136 17.205 16.315 16.07 14.404 15.831 11.598 15.593 8.793 17.683 6.406 17.444 5.212zM12.37 6.585C12.37 6.585 13.266 8.018 13.863 9.63 14.459 11.241 14.161 12.972 16.011 16.016 16.011 16.016 16.01 16.017 16.009 16.018 16.009 16.018 16.008 16.019 16.008 16.02 16.007 16.02 16.006 16.021 16.006 16.021 16.005 16.022 16.003 16.023 16.002 16.023 15.871 16.081 14.439 16.11 12.846 14.403 11.175 12.613 11.117 10.106 12.37 6.585zM15.681 20.971C11.264 26.224 15.385 26.513 18.696 25.357 21.999 24.204 29.231 25.894 30.066 31.475 27.709 28.968 22.856 27.961 18.338 32.64 14.16 36.967 8.161 40.8 5.654 34.61 3.865 30.194 6.519 21.747 15.681 20.971zM25.531 39.356C24.247 43.713 18.905 45.354 15.413 42.817 17.741 42.519 22.874 40.758 25.531 39.356zM8.729 40.4C9.952 40.997 10.996 41.712 11.742 43.025 10.399 42.816 9.147 41.773 8.729 40.4z" />
</svg>