<svg xmlns="http://www.w3.org/2000/svg">
    <path d="M23.045 4.09C23.045 4.09 23.045 4.091 23.045 4.092 23.045 4.092 23.044 4.092 23.044 4.092 23.043 4.092 23.042 4.092 23.042 4.092 21.447 4.118 19.742 4.65 18.416 5.877L21.095 8.655C20.673 9.09 20.402 9.671 20.362 10.315 17.734 10.745 15.194 11.808 13.708 12.462 13.408 12.052 12.926 11.785 12.38 11.785 11.472 11.785 10.734 12.522 10.734 13.431 10.734 13.843 10.885 14.22 11.135 14.509 10.507 15.491 8.823 18.156 8.96 18.328 9.129 18.539 10.51 19.125 11.897 19.047 11.948 20.209 11.878 22.501 11.24 24.827 10.523 27.444 10.818 29.807 11.915 33.184 12.843 36.037 12.414 37.535 11.164 38.822 9.728 39.018 8.961 39.011 7.772 38.79 6.39 38.534 5.97 39.335 6.101 40.343 6.28 41.716 5.803 44.044 4.072 46.491 8.31 48.64 14.825 47.328 14.876 46.611 14.91 46.134 14.288 43.551 13.667 41.447 14.72 41.047 16.623 40.343 16.965 40.343 17.442 40.343 22.097 41.895 22.217 42.492 22.336 43.088 21.978 47.267 22.217 47.565 22.455 47.864 23.607 47.893 23.829 47.625 24.089 47.312 23.779 42.899 24.09 42.418 24.44 41.878 27.917 40.881 28.395 40.881 28.737 40.881 30.82 41.286 31.873 41.685 31.252 43.789 30.51 46.314 30.544 46.791 30.595 47.508 36.929 48.998 41.167 46.849 40.212 43.865 39.565 42.364 39.617 40.939 39.671 39.434 39.448 38.833 38.066 39.088 36.669 39.347 35.095 39.256 33.08 39.06 31.081 38.867 30.514 38.165 30.155 37.926 29.797 37.687 29.529 33.957 29.529 33.957 29.529 33.957 29.326 34.063 29.312 34.071 31.123 30.954 31.717 29.588 30.95 27.9 30.035 25.885 30.156 24.749 30.819 21.683 31.189 19.974 33.179 16.579 33.373 15.375 33.667 13.553 33.845 13.633 32.094 12.857 30.753 12.263 28.244 11.162 25.584 10.652 25.588 10.594 25.59 10.537 25.59 10.478 25.59 9.72 25.267 9.036 24.752 8.558 25.536 7.703 26.463 6.668 27.32 5.665 26.526 4.694 24.901 4.08 23.126 4.09 23.112 4.09 23.099 4.089 23.085 4.09 23.082 4.09 23.078 4.09 23.075 4.09 23.075 4.09 23.074 4.09 23.074 4.09 23.073 4.09 23.072 4.09 23.072 4.09 23.07 4.09 23.069 4.09 23.068 4.09 23.068 4.09 23.066 4.09 23.066 4.09 23.066 4.09 23.064 4.09 23.064 4.09 23.064 4.09 23.061 4.09 23.06 4.09 23.06 4.09 23.059 4.09 23.059 4.09 23.058 4.09 23.057 4.09 23.057 4.09 23.056 4.09 23.055 4.09 23.055 4.09 23.055 4.09 23.053 4.09 23.053 4.09 23.052 4.09 23.05 4.09 23.049 4.09 23.049 4.09 23.048 4.09 23.047 4.09 23.047 4.09 23.046 4.09 23.045 4.09zM22.804 9.126C22.806 9.126 22.808 9.126 22.811 9.126 22.811 9.126 22.813 9.126 22.813 9.126 22.814 9.126 22.815 9.126 22.817 9.126 22.817 9.126 22.818 9.126 22.819 9.126 22.819 9.126 22.82 9.126 22.82 9.126 22.822 9.126 22.823 9.126 22.824 9.126 22.825 9.126 22.826 9.126 22.826 9.126 22.826 9.126 22.828 9.126 22.828 9.126 22.829 9.126 22.83 9.126 22.832 9.126 22.832 9.126 22.833 9.126 22.834 9.126 22.834 9.126 22.835 9.126 22.835 9.126 22.837 9.126 22.838 9.126 22.839 9.126 22.84 9.126 22.841 9.126 22.841 9.126 22.841 9.126 22.843 9.126 22.843 9.126 22.844 9.126 22.845 9.126 22.847 9.126 22.847 9.126 22.848 9.126 22.849 9.126 22.849 9.126 22.85 9.126 22.85 9.126 22.852 9.126 22.853 9.126 22.854 9.126 22.855 9.126 22.856 9.126 22.856 9.126 22.862 9.126 22.868 9.126 22.873 9.126 22.881 9.126 22.889 9.126 22.897 9.126 22.909 9.126 22.92 9.126 22.931 9.126 23.653 9.126 24.24 9.712 24.24 10.435 24.24 11.157 23.653 11.743 22.931 11.743 22.209 11.743 21.622 11.157 21.622 10.435 21.622 9.756 22.142 9.192 22.804 9.126zM20.514 11.976C20.517 11.976 20.519 11.976 20.522 11.976 20.522 11.976 20.523 11.976 20.524 11.976 20.525 11.976 20.526 11.976 20.527 11.976 20.528 11.976 20.529 11.976 20.529 11.976 20.529 11.976 20.531 11.976 20.531 11.976 20.532 11.976 20.534 11.976 20.535 11.976 20.535 11.976 20.537 11.976 20.537 11.976 20.537 11.976 20.538 11.976 20.539 11.976 20.54 11.976 20.543 11.976 20.544 11.976 20.544 11.976 20.546 11.976 20.546 11.976 20.546 11.976 20.548 11.976 20.548 11.976 20.55 11.976 20.552 11.976 20.554 11.976 20.554 11.976 20.555 11.976 20.555 11.976 20.556 11.976 20.557 11.976 20.557 11.976 20.559 11.976 20.561 11.976 20.563 11.976 20.563 11.976 20.564 11.976 20.565 11.976 20.574 11.975 20.584 11.976 20.593 11.976 21.144 11.967 21.252 12.421 20.947 12.84 20.61 13.305 20.018 13.937 19.639 14.19 19.259 14.444 17.897 14.548 16.98 14.74 16.072 14.93 14.955 15.33 14.364 15.499 13.773 15.668 13.73 14.952 13.73 14.361 13.73 13.757 14.49 13.473 15.967 13.009 17.445 12.545 19.682 12.123 20.4 11.997 20.44 11.989 20.478 11.98 20.514 11.976zM25.177 11.982C25.179 11.981 25.181 11.982 25.183 11.982 25.183 11.982 25.185 11.982 25.185 11.982 25.185 11.982 25.188 11.982 25.189 11.982 25.189 11.982 25.19 11.982 25.19 11.982 25.191 11.982 25.193 11.982 25.194 11.982 25.196 11.981 25.198 11.982 25.2 11.982 25.202 11.982 25.205 11.982 25.207 11.982 25.212 11.981 25.216 11.982 25.22 11.982 25.23 11.981 25.239 11.982 25.249 11.982 25.299 11.981 25.354 11.987 25.41 11.997 26.127 12.123 28.279 12.629 29.756 13.093 31.233 13.558 32.458 14.178 32.458 14.783 32.458 15.796 32.205 16.343 31.53 16.09 30.954 15.874 29.735 15.351 28.828 15.162 27.911 14.97 26.465 14.699 26.085 14.445 25.705 14.192 25.073 13.558 24.735 13.093 24.437 12.684 24.634 12.039 25.177 11.982zM22.907 14.749C22.907 14.749 22.908 14.749 22.909 14.749 22.909 14.749 22.91 14.749 22.91 14.749 22.911 14.749 22.913 14.749 22.914 14.749 22.915 14.749 22.916 14.749 22.916 14.749 23.135 14.739 23.356 14.902 23.437 15.205 23.637 15.949 23.894 16.689 24.536 17.398 25.338 18.285 24.809 20.239 22.805 20.226 20.801 20.213 20.25 18.252 21.369 17.273 22.153 16.587 22.245 15.918 22.425 15.246 22.511 14.926 22.704 14.768 22.901 14.751 22.901 14.751 22.903 14.751 22.903 14.751 22.903 14.751 22.905 14.751 22.905 14.751 22.905 14.751 22.907 14.749 22.907 14.749zM12.125 15.034C12.126 15.034 12.127 15.034 12.127 15.034 12.128 15.034 12.129 15.034 12.129 15.034 12.129 15.034 12.131 15.034 12.131 15.034 12.132 15.034 12.134 15.036 12.135 15.036 12.272 15.107 13.357 17.12 13.14 17.483 12.887 17.905 11.452 17.948 11.156 17.61 10.9 17.317 12.125 15.036 12.125 15.036 12.125 15.036 12.125 15.034 12.125 15.034zM31.179 17.494C31.18 17.494 31.181 17.494 31.181 17.494 31.183 17.494 31.186 17.494 31.189 17.494 31.189 17.494 31.19 17.494 31.19 17.494 31.241 17.492 31.288 17.502 31.331 17.526 31.881 17.828 29.052 24.059 23.312 24.068 16.848 24.078 13.992 19.573 14.533 19.003 15.369 18.123 16.935 21.931 22.847 21.915 27.878 21.902 30.225 17.573 31.179 17.494zM13.991 22.183C15.056 24.453 15.149 25.535 14.739 27.31 14.346 29.014 13.883 30.528 16.292 34.245 16.173 35.407 15.933 37.399 15.68 37.568 15.419 37.742 14.631 38.1 13.445 38.402 13.59 37.966 13.747 37.392 13.899 36.645 14.363 34.366 13.73 33.861 12.844 30.653 12.22 28.398 12.975 25.267 13.991 22.183zM22.159 25.275C22.165 25.275 22.171 25.275 22.177 25.275 22.19 25.275 22.201 25.276 22.213 25.275 22.231 25.275 22.248 25.276 22.265 25.275 22.506 25.273 22.669 25.29 22.717 25.33 22.718 25.33 22.719 25.331 22.719 25.332 22.72 25.332 22.721 25.333 22.721 25.333 23.017 25.629 23.101 28.246 22.805 28.626 22.51 29.006 16.233 27.865 16.305 26.727 16.347 26.057 20.592 25.325 22.159 25.275zM17.023 28.753 18.457 29.217 18.289 30.357 22.736 30.432C22.846 30.724 22.908 31.11 22.89 31.622 22.876 32.001 22.85 32.263 22.802 32.466 22.802 32.467 22.802 32.467 22.802 32.468 22.243 33.178 20.52 32.803 20.484 33.227 20.463 33.483 21.961 34.324 23.059 34.24 24.156 34.155 25.338 33.691 25.38 33.268 25.397 33.098 24.362 33.052 23.987 32.466 23.987 32.154 23.987 32.095 23.987 31.707 23.987 31.056 23.883 30.924 24.125 30.454L28.376 30.525C28.714 31.201 28.461 32.468 28.292 32.974 28.123 33.481 27.322 34.029 26.351 34.789 25.38 35.549 24.156 36.604 22.974 36.604 21.792 36.604 20.779 35.632 20.104 35.168 19.563 34.796 17.742 34.236 17.36 33.227 16.812 31.776 17.023 28.753 17.023 28.753zM23.33 37.448C23.335 37.448 23.339 37.448 23.344 37.448 23.348 37.448 23.353 37.448 23.357 37.448 23.361 37.448 23.366 37.448 23.37 37.448 23.374 37.448 23.379 37.448 23.383 37.448 23.387 37.448 23.392 37.448 23.396 37.448 23.4 37.448 23.405 37.448 23.409 37.448 23.414 37.448 23.418 37.448 23.422 37.448 23.431 37.448 23.44 37.448 23.449 37.448 23.462 37.447 23.475 37.448 23.488 37.448 23.511 37.447 23.533 37.448 23.555 37.448 23.866 37.447 24.123 37.484 24.197 37.573 24.408 37.827 23.437 40.933 23.059 40.95 22.593 40.971 21.876 37.995 22.087 37.742 22.207 37.599 22.8 37.476 23.33 37.448zM8.295 39.925C8.295 39.925 8.297 39.925 8.297 39.925 8.297 39.925 8.298 39.925 8.299 39.925 8.299 39.925 8.302 39.925 8.302 39.925 8.303 39.925 8.304 39.925 8.304 39.925 8.305 39.925 8.306 39.925 8.306 39.925 8.311 39.924 8.316 39.925 8.321 39.925 8.743 39.915 9.392 40.105 10.04 40.105 10.936 40.105 12.011 39.866 12.369 40.105 12.727 40.343 13.502 45.178 13.264 45.477 13.025 45.775 12.786 46.013 10.339 46.073 7.891 46.133 6.46 45.895 6.221 45.537 5.982 45.178 6.52 44.207 6.997 42.85 7.549 41.282 7.653 40.343 7.952 40.045 8.029 39.968 8.145 39.934 8.291 39.927 8.291 39.927 8.293 39.927 8.293 39.927 8.293 39.927 8.295 39.927 8.295 39.927 8.295 39.926 8.295 39.925 8.295 39.925zM36.405 40.14C36.413 40.14 36.421 40.141 36.429 40.14 36.437 40.14 36.445 40.141 36.454 40.14 36.462 40.14 36.47 40.141 36.478 40.14 36.487 40.14 36.496 40.141 36.504 40.14 36.513 40.14 36.521 40.141 36.53 40.14 36.54 40.14 36.549 40.141 36.559 40.14 36.568 40.14 36.577 40.141 36.587 40.14 36.597 40.14 36.607 40.141 36.617 40.14 36.627 40.14 36.637 40.141 36.647 40.14 36.657 40.14 36.668 40.141 36.679 40.14 36.689 40.14 36.7 40.141 36.71 40.14 36.722 40.14 36.733 40.141 36.744 40.14 36.756 40.14 36.767 40.14 36.778 40.14 36.802 40.14 36.827 40.141 36.851 40.14 37.436 40.134 37.962 40.163 38.141 40.343 38.44 40.641 38.544 41.52 39.095 43.088 39.573 44.445 39.752 45.537 39.514 45.895 39.275 46.253 37.843 46.491 35.396 46.431 32.949 46.371 32.172 46.073 31.933 45.775 31.694 45.476 32.947 40.702 33.305 40.463 33.664 40.224 34.799 40.165 35.694 40.165 35.916 40.165 36.159 40.149 36.405 40.14zM16.685 41.655C15.936 41.734 15.352 42.377 15.352 43.148 15.352 43.972 16.021 44.64 16.845 44.64 17.669 44.64 18.337 43.972 18.337 43.148 18.337 42.324 17.669 41.655 16.845 41.655 16.842 41.655 16.839 41.655 16.835 41.655 16.823 41.655 16.811 41.655 16.798 41.655 16.792 41.656 16.785 41.655 16.779 41.655 16.773 41.656 16.767 41.655 16.76 41.655 16.76 41.655 16.759 41.655 16.759 41.655 16.757 41.655 16.755 41.655 16.753 41.655 16.753 41.655 16.751 41.655 16.751 41.655 16.751 41.655 16.749 41.655 16.749 41.655 16.748 41.655 16.745 41.655 16.744 41.655 16.743 41.655 16.742 41.655 16.742 41.655 16.741 41.655 16.74 41.655 16.74 41.655 16.738 41.655 16.736 41.655 16.734 41.655 16.734 41.655 16.733 41.655 16.732 41.655 16.732 41.655 16.731 41.655 16.73 41.655 16.729 41.655 16.726 41.655 16.725 41.655 16.725 41.655 16.723 41.655 16.723 41.655 16.723 41.655 16.721 41.655 16.721 41.655 16.72 41.655 16.717 41.655 16.715 41.655 16.715 41.655 16.714 41.655 16.714 41.655 16.713 41.655 16.712 41.655 16.712 41.655 16.71 41.655 16.708 41.655 16.706 41.655 16.706 41.655 16.705 41.655 16.704 41.655 16.704 41.655 16.703 41.655 16.702 41.655 16.701 41.655 16.698 41.655 16.697 41.655 16.697 41.655 16.695 41.655 16.695 41.655 16.694 41.655 16.693 41.655 16.693 41.655 16.691 41.655 16.689 41.655 16.687 41.655 16.687 41.655 16.686 41.655 16.685 41.655zM28.325 42.073C27.576 42.152 26.992 42.795 26.992 43.566 26.992 44.39 27.661 45.058 28.485 45.058 29.309 45.058 29.977 44.39 29.977 43.566 29.977 42.742 29.309 42.073 28.485 42.073 28.475 42.073 28.466 42.073 28.457 42.073 28.447 42.074 28.438 42.073 28.429 42.073 28.422 42.074 28.416 42.073 28.41 42.073 28.409 42.073 28.408 42.073 28.408 42.073 28.406 42.073 28.404 42.073 28.402 42.073 28.402 42.073 28.401 42.073 28.4 42.073 28.4 42.073 28.399 42.073 28.399 42.073 28.397 42.073 28.395 42.073 28.393 42.073 28.393 42.073 28.391 42.073 28.391 42.073 28.391 42.073 28.389 42.073 28.389 42.073 28.388 42.073 28.385 42.073 28.384 42.073 28.383 42.073 28.382 42.073 28.382 42.073 28.381 42.073 28.38 42.073 28.38 42.073 28.378 42.073 28.376 42.073 28.374 42.073 28.374 42.073 28.373 42.073 28.372 42.073 28.372 42.073 28.371 42.073 28.37 42.073 28.369 42.073 28.366 42.073 28.365 42.073 28.365 42.073 28.363 42.073 28.363 42.073 28.363 42.073 28.361 42.073 28.361 42.073 28.36 42.073 28.357 42.073 28.355 42.073 28.355 42.073 28.354 42.073 28.354 42.073 28.353 42.073 28.352 42.073 28.352 42.073 28.35 42.073 28.348 42.073 28.346 42.073 28.346 42.073 28.345 42.073 28.344 42.073 28.344 42.073 28.343 42.073 28.342 42.073 28.341 42.073 28.338 42.073 28.337 42.073 28.337 42.073 28.335 42.073 28.335 42.073 28.334 42.073 28.333 42.073 28.333 42.073 28.331 42.073 28.329 42.073 28.327 42.073 28.327 42.073 28.326 42.073 28.325 42.073z" />
</svg>
