<svg xmlns="http://www.w3.org/2000/svg">
    <path d="M3.494 2.958C3.494 2.958 3.492 2.96 3.492 2.96 3.193 3.019 2.356 8.212 2.894 9.704 3.135 10.375 3.655 10.949 4.154 11.378 1.831 15.545 3.297 19.051 5.162 20.508 7.073 22 8.565 23.73 7.371 25.76 6.177 27.789 5.012 26.556 4.744 28.028 4.484 29.458 7.255 32.134 8.566 32.028 9.937 31.917 8.982 29.281 10.176 29.341L14.714 41.817 17.459 41.399 13.894 30.318C17.786 30.712 18.41 29.649 20.035 29.572 22.145 29.472 23.411 30.331 25.69 30.162 27.969 29.993 28.308 29.403 31.094 28.728 33.879 28.053 34.301 29.15 35.23 28.812 36.158 28.475 36.654 27.264 35.399 23.999 34.132 20.707 33.248 20.07 32.191 17.585 30.904 14.562 32.007 13.246 30.67 10.072 29.575 7.471 28.925 6.922 28.448 6.942 28.448 6.942 28.447 6.942 28.446 6.942 28.445 6.942 28.443 6.942 28.442 6.942 28.442 6.942 28.441 6.942 28.441 6.942 28.44 6.942 28.439 6.942 28.439 6.942 28.439 6.942 28.437 6.942 28.437 6.942 28.437 6.942 28.435 6.942 28.435 6.942 28.435 6.942 28.435 6.944 28.435 6.944 28.435 6.944 28.433 6.944 28.433 6.944 28.433 6.944 28.431 6.944 28.431 6.944 28.326 6.952 28.23 6.987 28.139 7.032 27.632 7.285 26.029 8.384 23.412 8.553 20.795 8.722 18.937 7.876 16.236 8.129 13.535 8.382 13.196 9.903 10.579 10.24 9.238 10.413 8.252 10.322 7.609 10.19 7.863 9.357 8.032 8.829 7.789 8.033 7.504 7.097 3.819 2.931 3.496 2.958 3.495 2.958 3.494 2.958 3.494 2.958zM4.626 6.241C5.581 6.898 6.536 8.033 6.715 8.63 6.894 9.227 6.357 10.419 5.999 10.598 5.641 10.778 4.327 10.36 4.028 9.524 3.73 8.688 4.089 7.972 4.626 6.241zM27.801 8.838C27.801 8.838 27.803 8.838 27.803 8.838 27.803 8.838 27.805 8.838 27.805 8.838 27.805 8.838 27.807 8.838 27.807 8.838 27.807 8.838 27.809 8.838 27.809 8.838 27.809 8.838 27.81 8.838 27.811 8.838 27.811 8.838 27.812 8.838 27.812 8.838 27.813 8.838 27.816 8.838 27.816 8.838 27.817 8.838 27.818 8.838 27.818 8.838 27.818 8.838 27.82 8.838 27.82 8.838 27.821 8.838 27.823 8.838 27.824 8.838 27.824 8.838 27.825 8.838 27.826 8.838 27.827 8.838 27.83 8.838 27.831 8.838 27.832 8.838 27.833 8.838 27.833 8.838 28.096 8.83 28.357 8.922 28.574 9.067 29.274 9.621 29.317 10.68 29.007 11.455 28.365 12.679 27.14 13.439 26.282 14.5 25.917 14.943 25.599 15.615 24.957 15.659 24.498 15.604 24.537 15.005 24.647 14.68 25.202 13.144 25.847 11.62 26.507 10.12 26.733 9.552 27.098 8.865 27.794 8.842 27.794 8.842 27.795 8.842 27.796 8.842 27.796 8.842 27.797 8.842 27.797 8.842 27.798 8.842 27.799 8.842 27.799 8.842 27.8 8.841 27.801 8.839 27.801 8.838zM8.798 11.705C8.799 11.705 8.801 11.705 8.802 11.705 8.804 11.705 8.807 11.705 8.809 11.705 8.813 11.704 8.818 11.705 8.822 11.705 8.827 11.704 8.831 11.705 8.836 11.705 8.84 11.704 8.844 11.705 8.849 11.705 8.853 11.705 8.857 11.705 8.862 11.705 8.871 11.704 8.879 11.705 8.888 11.705 9.194 11.697 9.586 11.766 10.019 11.849 11.255 12.088 11.087 13.026 12.944 14.039 14.801 15.052 16.743 15.304 16.236 16.233 15.73 17.161 14.163 16.273 11.762 15.558 10.195 15.091 8.882 14.312 8.386 12.942 8.063 12.051 8.286 11.746 8.798 11.705zM7.133 12.449 12.087 27.79 10.654 28.327 5.581 12.987 7.133 12.449zM4.804 13.703 6.893 20.15C4.685 18.777 3.431 17.404 4.804 13.703zM20.146 14.33C20.981 15.822 23.876 16.598 24.085 18.031 24.294 19.464 22.772 19.97 23.011 21.134 23.249 22.298 23.398 21.738 23.607 22.717 23.995 24.537 20.383 25.134 20.264 23.105 20.19 21.866 21.041 21.852 20.832 21.016 20.623 20.18 18.085 19.701 17.757 18.537 17.429 17.373 19.011 15.732 20.146 14.33zM25.242 20.992C25.242 20.992 25.243 20.992 25.244 20.992 25.245 20.992 25.247 20.992 25.247 20.992 25.248 20.992 25.249 20.992 25.249 20.992 25.25 20.992 25.252 20.992 25.253 20.992 25.253 20.992 25.255 20.992 25.255 20.992 25.256 20.992 25.258 20.992 25.259 20.992 25.259 20.992 25.26 20.992 25.261 20.992 25.261 20.992 25.264 20.992 25.264 20.992 25.271 20.991 25.278 20.992 25.285 20.992 25.302 20.991 25.317 20.993 25.334 20.995 26.27 20.999 27.165 21.39 28.054 21.652 29.349 22.137 30.707 22.43 31.966 22.996 33.078 23.493 34.232 24.365 34.364 25.67 34.362 26.05 34.524 26.576 34.191 26.864 33.845 27.013 33.421 26.958 33.064 26.868 32.063 26.372 31.291 25.517 30.407 24.843 29.428 23.97 28.258 23.375 27.074 22.833 26.364 22.445 25.531 22.181 24.981 21.575 24.773 21.351 24.975 21.029 25.242 20.992zM18.122 21.269C18.127 21.269 18.133 21.269 18.137 21.269 18.269 21.262 18.368 21.299 18.43 21.383 19.112 22.319 17.249 23.41 16.489 25.013 15.73 26.617 15.306 29.234 14.716 29.234 14.15 29.234 13.49 28.67 13.118 27.905L12.859 27.1C12.815 26.831 12.811 26.554 12.859 26.279 13.087 24.989 16.894 21.36 18.122 21.269zM8.566 26.118 9.162 27.79C8.565 29.82 8.624 31.122 7.013 29.819 4.984 28.178 6.183 27.792 6.946 27.237 7.549 26.799 8.118 26.446 8.566 26.118z" />
</svg>
