<svg xmlns="http://www.w3.org/2000/svg">
    <path d="M21.165 2.449C20.503 2.467 19.709 2.776 18.778 3.437 14.253 1.493 13.433 6.476 15.354 11.923 13.261 13.939 12.152 17.273 12.152 20.573 12.152 25.68 11.223 27.706 10.084 28.508 8.944 29.309 8.267 30.829 9.323 31.884 10.366 32.928 11.488 32.56 13.127 31.088 13.105 31.914 13.08 32.834 13.08 33.023 13.08 34.289 13.164 35.302 11.434 36.484 9.703 37.666 8.015 37.285 6.369 37.581 4.723 37.876 4.553 40.029 4.849 40.958 5.144 41.886 3.372 44.757 2.781 45.812 2.19 46.867 2.95 47.584 3.752 47.584 4.246 47.584 4.469 48.049 4.089 49.02 3.71 49.991 4.259 50.792 7.129 51.129 9.899 51.455 13.375 51.424 17.891 49.905 21.521 51.129 30.089 51.636 32.537 50.876 29.751 48.091 22.535 44.841 15.951 44.503 15.951 44.503 17.975 42.14 18.651 41.929 19.326 41.718 23.589 43.405 27.514 45.6 31.439 47.795 34.014 50.54 34.521 50.751 35.027 50.962 35.956 51.003 37.56 50.792 37.56 50.792 37.562 50.794 37.562 50.794 37.562 50.794 37.564 50.794 37.564 50.794 37.564 50.794 37.565 50.794 37.566 50.794 37.566 50.794 37.567 50.794 37.568 50.794 37.568 50.793 37.569 50.792 37.569 50.792 37.638 50.7 36.935 48.256 33.677 44.672 30.3 40.958 29.962 41.253 29.413 40.536 28.864 39.818 30.638 37.709 31.44 36.274 32.095 35.102 30.865 34.689 28.944 34.187 30.2 32.516 30.444 31.395 30.238 28.628 31.14 28.562 31.778 28.441 33.002 28.211 35.002 27.835 34.68 23.959 32.58 22.682 31.369 21.945 29.92 22.048 28.991 17.574 28.249 13.998 26.224 11.496 23.31 10.493 24.211 6.136 23.573 2.45 21.229 2.449 21.208 2.449 21.186 2.448 21.165 2.449zM20.852 4.401C20.864 4.4 20.875 4.401 20.888 4.401 22.311 4.405 22.477 8.056 22.028 10.611 21.425 14.039 20.154 14.663 20.038 15.156 19.909 15.705 20.228 18.054 20.469 19.061 21.216 19.241 21.771 19.915 21.771 20.717 21.771 21.656 21.009 22.418 20.07 22.418 19.131 22.418 18.369 21.656 18.369 20.717 18.369 20.096 18.702 19.551 19.2 19.254 19.374 18.278 19.242 15.401 18.863 14.831 18.651 14.515 17.311 13.217 16.425 10.526 15.539 7.836 15.147 3.288 18.819 6.053 19.673 4.903 20.342 4.421 20.852 4.401zM22.939 12.021C24.448 12.473 25.752 13.576 26.466 14.987 27.8 17.318 27.463 19.967 28.453 22.406 29.04 24.036 30.076 24.629 31.494 25.403 32.442 25.919 32.207 27.329 31.009 26.831 30.595 26.66 30.219 26.481 29.876 26.293 29.331 24.748 28.037 23.311 26.606 22.108 26.545 21.867 26.491 21.618 26.443 21.362 26.089 19.289 26.183 16.718 24.896 14.949 24.329 14.146 23.483 13.565 22.545 13.288 22.69 12.865 22.821 12.441 22.939 12.021zM16.058 13.667C16.249 14.087 16.456 14.505 16.678 14.919 16.379 15.253 16.126 15.629 15.936 16.046 14.609 18.605 14.786 21.577 14.721 24.379 14.662 25.891 14.218 28.614 11.601 30.683 10.944 31.201 10.028 30.265 11.023 29.344 12.2 28.254 13.387 25.614 13.414 24.041 13.426 21.194 13.391 18.195 14.685 15.589 15.009 14.851 15.482 14.206 16.058 13.667zM22.018 24.536C22.028 24.536 22.038 24.537 22.048 24.536 22.058 24.536 22.068 24.536 22.078 24.536 22.088 24.536 22.098 24.536 22.108 24.536 22.129 24.536 22.149 24.536 22.17 24.536 22.689 24.532 23.231 24.583 23.788 24.709 21.614 25.665 20.739 26.177 20.803 26.565 20.861 26.91 22.37 27.609 24.488 27.872L24.701 31.08C23.347 31.333 22.236 32.089 21.131 33.514 21.121 33.505 21.11 33.497 21.099 33.488 17.838 30.703 16.962 27.03 17.258 26.439 17.452 26.05 19.428 24.612 22.018 24.536zM27.906 27.853C27.666 29.086 27.548 30.183 27.471 31.136 27.092 31.072 26.733 31.027 26.389 31.003 26.281 30.063 26.26 28.881 26.263 27.973 26.751 27.969 27.254 27.939 27.767 27.874 27.815 27.868 27.861 27.861 27.906 27.853zM14.601 32.768C14.601 32.768 14.602 32.768 14.603 32.768 14.603 32.768 14.604 32.768 14.604 32.768 14.605 32.768 14.606 32.769 14.606 32.769 14.606 32.77 14.606 32.771 14.606 32.771 14.606 32.771 14.599 32.769 14.599 32.769 14.599 32.769 14.6 32.768 14.601 32.768zM14.608 32.775C14.718 32.818 21.904 35.642 22.155 35.852 22.408 36.063 24.94 41.253 24.686 41.717 24.433 42.181 22.914 41.928 22.703 41.717 22.491 41.506 21.099 36.99 20.719 36.653 20.339 36.315 15.232 34.712 14.936 34.459 14.662 34.223 14.643 32.893 14.608 32.775zM24.804 33.298 25.041 33.347C24.953 33.333 24.863 33.319 24.773 33.306L24.804 33.298zM25.568 33.773C25.575 33.772 25.583 33.773 25.59 33.773 25.597 33.772 25.605 33.773 25.613 33.773 25.62 33.772 25.628 33.773 25.635 33.773 25.643 33.772 25.65 33.773 25.658 33.773 25.673 33.772 25.687 33.773 25.703 33.773 26.211 33.767 26.73 33.842 27.231 33.962 27.113 34.701 26.909 35.195 26.46 35.428 25.445 35.954 24.254 35.626 23.078 34.937 23.755 34.129 24.641 33.809 25.568 33.773zM27.979 35.597C28.907 35.808 29.582 36.527 29.582 36.527 29.582 36.527 27.261 39.903 27.261 41.676 26.248 41.802 25.404 41.759 25.236 41.801 25.827 38.425 27.219 36.525 27.979 35.597zM8.503 39.465C8.503 39.465 8.505 39.465 8.505 39.465 8.505 39.465 8.507 39.465 8.507 39.465 8.508 39.465 8.51 39.465 8.511 39.465 8.511 39.465 8.512 39.465 8.513 39.465 8.513 39.465 8.514 39.465 8.514 39.465 8.515 39.465 8.516 39.465 8.516 39.465 8.516 39.465 8.518 39.465 8.518 39.465 8.518 39.465 8.52 39.465 8.52 39.465 8.521 39.465 8.523 39.465 8.524 39.465 8.524 39.465 8.525 39.465 8.526 39.465 8.527 39.465 8.53 39.465 8.531 39.465 8.532 39.465 8.533 39.465 8.533 39.465 8.537 39.465 8.541 39.465 8.544 39.465 8.559 39.465 8.574 39.465 8.589 39.465 9.854 39.455 11.5 39.603 12.531 39.861 13.806 40.179 13.267 40.855 13.08 41.548 12.855 42.381 13.332 45.01 13.796 46.699 11.559 47.543 8.395 47.88 4.976 45.728 5.736 44.166 7.087 41.97 6.791 41.126 6.496 40.282 6.495 39.65 7.551 39.523 7.818 39.491 8.142 39.472 8.499 39.467 8.5 39.467 8.501 39.467 8.501 39.467 8.501 39.467 8.503 39.467 8.503 39.467 8.503 39.467 8.503 39.465 8.503 39.465zM28.706 42.731C28.708 42.731 28.71 42.731 28.712 42.731 28.712 42.731 28.714 42.731 28.714 42.731 28.714 42.731 28.717 42.731 28.718 42.731 28.719 42.731 28.723 42.731 28.725 42.731 28.727 42.731 28.731 42.731 28.733 42.731 28.734 42.731 28.738 42.731 28.74 42.731 28.742 42.731 28.744 42.731 28.746 42.731 28.748 42.731 28.751 42.731 28.753 42.731 28.758 42.731 28.762 42.731 28.766 42.731 28.785 42.73 28.804 42.731 28.823 42.731 29.428 42.731 29.919 43.222 29.919 43.828 29.919 44.434 29.428 44.925 28.823 44.925 28.217 44.925 27.726 44.434 27.726 43.828 27.726 43.262 28.155 42.79 28.706 42.731zM32.348 45.812C32.35 45.812 32.353 45.812 32.355 45.812 32.357 45.812 32.361 45.812 32.363 45.812 32.364 45.812 32.368 45.812 32.37 45.812 32.372 45.812 32.374 45.812 32.376 45.812 32.378 45.812 32.381 45.812 32.383 45.812 32.388 45.812 32.392 45.812 32.396 45.812 32.401 45.812 32.405 45.812 32.409 45.812 32.423 45.811 32.438 45.812 32.453 45.812 33.058 45.812 33.549 46.303 33.549 46.909 33.549 47.515 33.058 48.008 32.453 48.008 31.847 48.008 31.356 47.515 31.356 46.909 31.356 46.338 31.79 45.864 32.348 45.812z" />
</svg>
