<svg xmlns="http://www.w3.org/2000/svg">
    <path d="M28.374 3.372C28.332 3.374 28.291 3.377 28.248 3.377 27.253 3.399 26.481 3.881 25.869 4.697 23.806 4.062 21.728 3.77 19.762 3.775 19.727 3.775 19.692 3.775 19.657 3.775 19.639 3.775 19.622 3.775 19.604 3.775 19.587 3.775 19.569 3.775 19.552 3.775 19.535 3.775 19.517 3.775 19.499 3.775 19.482 3.775 19.464 3.775 19.447 3.775 15.06 3.857 11.278 5.423 9.564 7.913 6.382 12.536 8.139 15.835 10.22 16.806 11.499 17.403 14.637 17.117 16.586 15.098 16.664 15.852 16.479 16.734 16.077 17.729 14.985 18.291 14.075 18.932 13.445 19.493 12.035 20.748 11.008 22.244 9.787 23.712 9.685 23.658 9.59 23.606 9.504 23.552 8.549 22.956 7.535 23.552 7.237 24.627 7.081 25.186 7.137 25.743 7.419 26.127 5.499 27.679 3.951 27.694 3.894 28.148 3.834 28.626 4.404 30.172 6.997 30.775 7.359 30.859 7.754 30.885 8.176 30.872 7.266 31.615 6.042 32.718 6.042 33.282 6.042 33.611 6.301 34.167 6.627 34.737 5.972 35.237 5.326 35.988 5.326 36.683 5.326 37.381 5.943 38.258 6.779 38.612 6.093 39.753 5.728 40.392 5.684 40.742 5.625 41.22 7.176 46.293 7.057 51.068 12.847 50.113 20.189 48.921 25.561 48.443 25.25 44.578 26.162 41.605 26.649 40.337 29.092 40.353 32.6 39.415 33.757 36.934 29.997 35.501 30.396 31.789 33.5 27.074 36.057 23.19 38.167 15.66 34.329 10.223 34.539 9.972 34.722 9.738 34.872 9.526 36.216 7.628 35.857 6.625 34.574 5.286 33.25 3.904 31.147 3.355 28.535 3.372 28.511 3.372 28.488 3.371 28.464 3.372 28.455 3.372 28.446 3.372 28.437 3.372 28.43 3.372 28.421 3.372 28.413 3.372 28.406 3.372 28.399 3.372 28.392 3.372 28.386 3.372 28.38 3.372 28.374 3.372zM28.829 4.654C28.831 4.654 28.833 4.655 28.835 4.654 28.837 4.654 28.841 4.654 28.842 4.654 28.843 4.654 28.844 4.654 28.844 4.654 28.847 4.654 28.849 4.654 28.852 4.654 28.865 4.654 28.88 4.654 28.893 4.654 31.176 4.639 34.953 5.77 34.173 7.986 33.931 8.674 32.347 10.828 31.863 11.365 29.301 14.21 28.189 14.719 25.544 17.327 24.347 18.38 24.295 20.128 23.471 21.426 23.206 22.223 21.938 22.284 21.581 21.537 21.287 20.651 21.884 19.759 22.542 19.204 23.326 18.752 23.554 17.605 23.675 16.726 24.408 13.422 24.768 10.268 25.889 7.058 26.24 5.957 26.962 4.873 28.22 4.699 28.4 4.675 28.599 4.66 28.812 4.656 28.818 4.656 28.824 4.655 28.829 4.654zM20.474 8.376C20.485 8.376 20.496 8.377 20.506 8.376 20.517 8.376 20.528 8.376 20.538 8.376 20.549 8.376 20.559 8.376 20.57 8.376 20.581 8.376 20.591 8.376 20.602 8.376 20.613 8.376 20.623 8.376 20.634 8.376 20.644 8.376 20.655 8.376 20.666 8.376 20.709 8.376 20.753 8.376 20.797 8.376 21.49 8.376 22.853 8.699 24.187 9.122 24.031 9.854 23.895 10.63 23.771 11.434 23.407 13.787 23.118 15.356 22.925 16.352 21.031 16.094 19.155 16.46 17.527 17.082 17.934 16.003 18.404 13.172 18.039 11.792 14.099 13.225 14.758 10.957 15.594 10.062 16.112 9.507 17.824 8.456 20.474 8.376zM31.017 13.662C31.961 15.049 32.676 16.953 32.784 19.671 32.912 22.907 31.384 26.193 30.421 28.842 30.392 28.154 30.367 27.443 30.337 26.716 30.139 22.028 29.076 19.36 26.647 17.755 27.645 16.819 29.368 15.252 31.017 13.662zM21.532 17.579C21.532 17.579 21.533 17.579 21.534 17.579 21.534 17.579 21.537 17.579 21.537 17.579 21.538 17.579 21.539 17.579 21.539 17.579 21.54 17.579 21.541 17.579 21.541 17.579 21.542 17.579 21.544 17.579 21.545 17.579 21.545 17.579 21.547 17.579 21.547 17.579 21.549 17.579 21.552 17.579 21.554 17.579 21.564 17.578 21.574 17.579 21.584 17.579 21.928 17.575 22.279 17.613 22.629 17.689 22.283 18.238 20.827 18.629 20.427 20.866 20.129 22.537 22.1 23.611 23.472 22.954 24.459 22.483 25.138 20.396 25.531 19.268 26.452 20.149 27.071 21.289 27.059 22.482 27.027 25.776 25.957 27.795 25.233 31.122 24.707 33.541 26.44 36.897 31.214 37.744 29.695 38.986 28.152 39.477 26.272 38.986 22.778 38.071 21.924 34.418 21.262 32.821 20.559 30.876 18.709 29.528 16.737 29.074 14.391 28.45 11.948 29.021 9.601 29.387 8.28 29.624 6.723 29.678 5.664 28.731 6.286 28.409 7.108 27.847 7.676 27.366 7.961 27.124 8.232 26.877 8.491 26.627 8.492 26.627 8.493 26.627 8.493 26.627 8.622 26.63 8.759 26.619 8.907 26.596 10.4 26.357 12.878 26.383 14.936 26.776 17.461 27.257 18.697 27.492 20.129 28.506 21.562 29.521 24.365 29.401 24.249 26.954 24.129 24.447 22.337 23.969 20.726 24.447 19.114 24.924 17.682 25.343 15.056 25.045 13.291 24.844 11.823 24.508 10.76 24.128 12.062 22.563 13.312 20.982 15.181 19.566 17.134 18.087 20.096 17.585 21.524 17.581 21.525 17.581 21.526 17.581 21.526 17.581 21.527 17.581 21.528 17.581 21.528 17.581 21.529 17.58 21.531 17.579 21.532 17.579zM16.488 30.392C16.908 30.499 17.327 30.643 17.742 30.833 18.408 31.137 18.899 31.546 19.28 32.018L15.747 37.596C12.325 38.857 12.463 37.201 11.892 35.491 11.419 34.071 9.406 33.927 8.206 34.077 8.01 33.672 7.875 33.324 7.893 33.162 7.932 32.809 9.641 31.43 10.812 30.522 10.813 30.522 10.814 30.522 10.814 30.522 11.026 30.485 11.242 30.447 11.459 30.411L11.712 31.967 16.488 30.392zM20.636 37.347C21.462 38.259 22.637 39.556 23.232 40.206 19.818 40.532 12.43 41.757 9.744 42.473 8.706 42.75 7.774 42.354 7.177 41.757 6.655 41.235 7.32 40.395 8.491 38.678 9.105 38.592 9.496 38.597 9.744 39.548 10.05 40.722 12.945 41.999 15.539 38.498L20.636 37.347zM24.551 41.161C24.568 41.16 24.584 41.161 24.601 41.161 24.618 41.16 24.635 41.161 24.652 41.161 24.738 41.16 24.823 41.16 24.905 41.161 24.801 42.19 24.487 43.189 24.487 43.189 24.487 43.189 14.519 44.742 13.027 45.1 11.535 45.458 11.594 46.055 10.758 49.397L8.311 49.756C8.013 48.263 9.564 44.503 10.34 43.607 11.095 42.736 20.196 41.228 24.551 41.161z" />
</svg>
