<svg xmlns="http://www.w3.org/2000/svg">
    <path d="M25.563 2.94C25.563 2.94 25.563 2.942 25.563 2.942 25.562 2.942 25.56 2.942 25.559 2.942 22.405 2.991 19.293 4.758 17.853 6.747 16.904 8.057 16.488 10.759 17.446 13.778L14.236 18.396C13.79 17.439 12.518 16.832 11.099 16.982 9.415 17.161 8.159 18.34 8.294 19.615 8.356 20.195 8.696 20.696 9.207 21.053L10.158 33.484C8.032 35.831 5.909 41.442 5.909 41.442 5.909 41.442 4.854 40.977 4.347 41.188 3.841 41.399 3.276 46.297 3.207 46.843 3.123 47.519 6.045 50.234 10.467 50.768 15.133 51.331 19.035 48.658 25.619 48.658 31.998 48.658 33.681 49.165 38.831 50.052 39.59 49.292 39.929 46.083 39.464 42.242 39.464 42.242 40.772 42.116 42.039 41.398 42.039 41.398 40.307 36.967 40.012 36.081 39.716 35.195 40.139 33.59 39.421 33.042 38.704 32.493 34.652 33.885 32.964 33.801 31.275 33.716 31.528 32.451 31.486 30.383 31.447 28.437 31.145 27.573 32.444 26.353 35.281 27.793 37.759 28.943 37.987 28.693 38.523 28.108 35.327 20.76 33.976 17.215 33.976 17.215 39.211 18.817 42.123 15.863 42.123 15.863 39.55 14.85 36.258 12.613 36.375 12.587 40.126 11.699 41.996 7.212 41.996 7.212 38.239 8.224 33.47 7.38 33.47 7.38 35.453 6.45 36.129 4.467 34.314 4.509 31.529 4.214 27.731 3.201 27.052 3.02 26.356 2.938 25.662 2.94 25.645 2.94 25.627 2.94 25.61 2.94 25.606 2.94 25.601 2.94 25.597 2.94 25.596 2.94 25.595 2.94 25.595 2.94 25.593 2.94 25.591 2.94 25.589 2.94 25.589 2.94 25.588 2.94 25.587 2.94 25.586 2.94 25.582 2.94 25.58 2.94 25.579 2.94 25.577 2.94 25.576 2.94 25.576 2.94 25.575 2.94 25.574 2.94 25.574 2.94 25.573 2.94 25.572 2.94 25.572 2.94 25.571 2.94 25.571 2.94 25.57 2.94 25.569 2.94 25.569 2.94 25.569 2.94 25.567 2.94 25.567 2.94 25.567 2.94 25.565 2.94 25.565 2.94 25.565 2.94 25.563 2.94 25.563 2.94zM25.627 4.262C28.325 4.559 30.464 5.484 33.17 5.736 32.007 6.905 31.298 7.183 30.329 8.13 33.836 8.889 34.922 9.021 38.57 9.246 36.764 10.819 35.962 11.594 33.693 12.465 35.871 14.056 36.197 14.626 38.585 15.883 36.442 16.547 34.156 16.072 32.084 15.387 32.082 15.385 32.08 15.385 32.079 15.385 32.078 15.385 32.077 15.385 32.077 15.385 32.077 15.385 32.075 15.385 32.075 15.385 32.074 15.385 32.072 15.387 32.071 15.388 32.071 15.389 32.07 15.39 32.069 15.39 32.033 15.498 32.54 16.861 33.234 18.675 31.341 17.668 28.863 16.212 27.477 14.85L28.278 20.168C28.278 20.168 25.577 18.143 23.551 14.978L23.705 20.734C21.438 19.098 19.535 16.827 18.554 14.265 17.835 12.308 17.836 9.76 18.764 7.81 20.256 5.594 22.915 4.371 25.537 4.264L25.567 4.264 25.627 4.262zM17.853 15.357C18.149 16.116 18.403 16.37 19.205 17.34L14.604 23.545 11.649 23.967C11.644 23.874 16.382 17.375 17.853 15.357zM31.107 19.705 33.47 20.505 35.328 25.613 32.499 24.304 31.107 19.705zM23.527 22.932C23.075 27.745 22.013 28.733 20.542 27.9 20.166 27.116 19.632 26.883 18.852 26.907 18.775 26.909 18.694 26.914 18.612 26.922 18.011 26.973 17.487 26.964 17.028 27.03 16.97 26.96 16.907 26.881 16.841 26.794 16.464 26.304 16.524 26.287 17.981 24.25L21.061 24.981 21.292 23.361 23.527 22.932zM16.439 24.295C16.126 24.796 15.737 25.413 15.406 25.909 14.859 26.73 15.056 27.186 15.513 28.007 14.965 28.877 13.863 30.638 15.532 30.93 15.687 30.957 15.835 30.982 15.976 31.005 15.944 31.678 16.379 33.192 17.347 33.463 18.402 33.759 17.177 35.279 16.46 35.237 15.591 35.186 15.617 34.56 14.941 34.223 14.407 33.956 13.874 34.296 13.402 33.529L12.954 24.966 16.439 24.295zM30.262 27.597 30.305 29.792C30.305 29.792 24.734 30.636 24.269 31.058 23.805 31.48 22.201 35.363 22.201 35.363L19.88 34.392C19.88 34.392 21.652 29.961 22.158 29.539 22.665 29.117 30.262 27.597 30.262 27.597zM17.87 27.97C17.874 27.969 17.879 27.97 17.883 27.97 17.887 27.969 17.892 27.97 17.896 27.97 17.9 27.969 17.905 27.97 17.909 27.97 17.914 27.969 17.918 27.97 17.922 27.97 17.927 27.969 17.931 27.97 17.936 27.97 17.94 27.969 17.944 27.97 17.949 27.97 17.953 27.969 17.958 27.97 17.962 27.97 17.966 27.969 17.971 27.97 17.975 27.97 17.984 27.969 17.992 27.97 18.001 27.97 18.015 27.969 18.029 27.97 18.042 27.97 18.435 27.967 18.835 28.052 19.205 28.221 20.091 28.625 20.439 32.138 19.606 31.607 18.449 30.869 17.878 30.341 16.301 29.97 15.509 29.784 16.119 28.983 16.481 28.562 16.856 28.209 17.348 28.008 17.87 27.97zM38.229 34.984C38.23 34.984 38.231 34.984 38.232 34.984 38.233 34.984 38.234 34.984 38.234 34.984 38.235 34.984 38.237 34.984 38.238 34.984 38.238 34.984 38.24 34.984 38.24 34.984 38.957 38.191 40.012 40.639 40.012 40.639 36.466 41.736 32.246 41.018 32.246 41.018 32.71 37.852 32.711 35.278 32.711 35.278 35.527 35.399 38.038 35.02 38.229 34.984zM13.306 35.185C13.312 35.184 13.317 35.185 13.323 35.185 13.329 35.184 13.334 35.185 13.34 35.185 13.346 35.184 13.351 35.185 13.357 35.185 13.363 35.184 13.368 35.185 13.374 35.185 13.754 35.176 14.08 35.24 14.307 35.406 15.405 36.208 15.489 38.781 14.645 40.849 13.801 42.917 10.383 44.226 10.383 44.226L6.922 41.948C8.441 38.318 8.695 37.178 9.455 36.503 9.698 36.287 11.851 35.248 13.306 35.185zM19.293 35.361C19.293 35.361 19.295 35.361 19.295 35.361 19.295 35.361 19.297 35.361 19.297 35.361 19.297 35.361 19.298 35.361 19.299 35.361 19.3 35.361 19.301 35.361 19.302 35.361 19.303 35.361 19.304 35.361 19.304 35.361 20.006 35.319 25.366 37.931 30.768 42.58 30.768 42.58 30.178 45.071 28.574 47.308 22.834 42.033 16.925 39.88 16.587 39.289 16.25 38.698 16.504 37.22 16.884 36.503 17.264 35.785 18.656 35.447 19.289 35.363 19.29 35.363 19.291 35.363 19.291 35.363 19.292 35.363 19.293 35.361 19.293 35.361zM19.128 36.503C18.418 36.543 17.853 37.133 17.853 37.853 17.853 38.598 18.459 39.205 19.205 39.205 19.951 39.205 20.555 38.598 20.555 37.853 20.555 37.107 19.951 36.503 19.205 36.503 19.187 36.503 19.17 36.502 19.152 36.503 19.147 36.503 19.141 36.502 19.136 36.503 19.133 36.503 19.131 36.503 19.128 36.503zM14.941 42.917C17.094 45.787 13.674 47.266 12.071 45.325 13.379 44.565 14.941 42.917 14.941 42.917z" />
</svg>
