<svg xmlns="http://www.w3.org/2000/svg">
    <path d="M21.809 1.934C18.43 2.011 15.151 3.953 14.564 8.585 14.564 8.585 8.833 10.614 2.804 12.882 2.926 14.006 3.078 15.031 3.284 15.98 2.346 19.031 1.677 22.745 3.64 23.148 5.155 23.459 5.529 22.254 5.592 21.282 6.931 23.086 8.894 24.748 11.825 26.624 11.004 28.766 10.32 30.67 10.443 32.238 10.553 33.646 12.308 36.609 13.509 38.489 13.106 38.606 12.766 38.904 12.595 39.708 12.3 41.101 10.78 47.39 10.78 47.39 10.78 47.39 15.34 50.007 19.899 49.88 24.457 49.753 28.087 47.137 28.087 47.137 28.087 47.137 26.82 40.552 26.694 40.046 26.587 39.62 26.57 38.894 25.99 38.624 28.601 34.83 29.361 33.891 29.437 31.689 29.481 30.406 28.631 28.64 27.845 27.292 28.727 26.103 28.793 24.946 28.411 23.09 33.007 17.539 32.432 9.959 28.949 5.122 27.501 3.111 24.667 1.895 21.888 1.934 21.875 1.934 21.862 1.934 21.849 1.934 21.835 1.935 21.822 1.934 21.809 1.934zM22.477 3.031C30.401 2.968 33.045 15.763 27.995 20.937 28.02 20.785 28.801 15.871 27.039 12.404 27.039 12.404 27.815 17.478 25.01 18.971 25.069 17.897 25.008 14.676 23.279 11.454 23.315 11.624 24.426 17.075 21.547 17.956 21.547 17.18 21.308 14.195 19.338 10.912 20.233 13.716 20.651 16.876 17.373 18.429 17.414 18.282 17.093 15.117 16.355 13.061 15.519 10.733 14.326 3.201 22.383 3.033 22.414 3.032 22.446 3.031 22.477 3.031zM13.968 10.014C13.968 10.014 13.97 10.014 13.97 10.014 13.971 10.014 13.974 10.014 13.975 10.014 13.976 10.014 13.977 10.014 13.977 10.014 13.978 10.014 13.979 10.014 13.979 10.014 13.981 10.014 13.983 10.014 13.985 10.014 13.985 10.014 13.986 10.014 13.987 10.014 14.004 10.013 14.018 10.015 14.026 10.017 14.384 10.137 14.802 11.51 14.682 11.808 14.563 12.107 5.073 15.568 4.715 15.389 4.357 15.21 4.023 14.115 4.297 13.659 4.552 13.233 13.111 10.099 13.968 10.014zM20.354 17.538 20.77 20.641 23.635 18.074 23.755 21.896 26.56 19.389C26.56 19.389 26.68 21.598 26.202 23.09 25.367 23.388 20.951 23.626 18.085 23.506 15.289 23.39 13.521 22.248 13.437 22.194 13.439 22.193 13.44 22.192 13.441 22.192 13.441 22.191 13.443 22.19 13.443 22.19 13.444 22.19 13.446 22.188 13.447 22.188 13.447 22.187 13.448 22.185 13.449 22.184 13.449 22.184 13.45 22.183 13.45 22.182 13.451 22.182 13.452 22.179 13.452 22.179 13.453 22.178 13.454 22.176 13.454 22.175 13.454 22.175 13.454 22.173 13.454 22.173 13.455 22.171 13.456 22.168 13.456 22.166 13.476 22.038 13.31 21.482 14.086 20.343 14.981 19.03 16.533 18.314 16.533 18.314L17.071 20.821 20.354 17.538zM5.474 18.057C5.477 18.057 5.479 18.058 5.482 18.057 5.482 18.057 5.483 18.057 5.484 18.057 5.485 18.057 5.486 18.057 5.487 18.057 5.488 18.057 5.489 18.057 5.489 18.057 6.099 18.034 8.755 21.553 13.132 23.626 17.668 25.775 26.681 24.044 27.219 24.282 27.756 24.521 27.397 26.015 27.159 26.313 26.92 26.612 20.711 27.924 14.384 26.253 8.057 24.582 4.954 18.671 5.431 18.074 5.432 18.073 5.435 18.072 5.437 18.071 5.442 18.068 5.448 18.065 5.454 18.063 5.46 18.061 5.467 18.059 5.474 18.057zM19.355 28.186C19.368 28.186 19.381 28.186 19.394 28.186 19.41 28.186 19.426 28.187 19.441 28.186L19.548 31.057C17.805 31.003 16.408 30.512 14.097 29.645 14.699 28.725 15.961 28.266 19.355 28.186zM26.272 30.027C25.88 32.378 25.488 35.62 24.582 36.29 23.612 37.007 22.81 36.881 22.008 36.206 21.206 35.53 21.038 34.813 21.08 33.631 21.088 33.396 21.096 33.176 21.104 32.977 22.032 32.927 24.247 32.793 24.414 32.66 24.559 32.543 24.082 31.884 23.772 31.486 24.568 31.141 25.375 30.664 26.272 30.027zM13.707 30.712C14.599 31.047 15.356 31.329 16.044 31.557L15.509 32.703C15.509 32.703 17.661 32.998 18.125 32.829 18.387 32.733 18.785 32.448 19.081 32.219 19.249 32.231 19.419 32.239 19.593 32.242L19.694 34.981C19.694 34.981 18.639 35.529 18.048 36.247 17.457 36.964 16.569 37.219 15.134 35.952 13.899 34.863 13.478 32.21 13.707 30.712zM20.292 38.292C20.292 38.292 20.294 38.292 20.294 38.292 20.294 38.292 20.296 38.292 20.296 38.292 20.297 38.292 20.299 38.292 20.3 38.292 20.301 38.292 20.303 38.292 20.304 38.292 20.305 38.292 20.308 38.292 20.309 38.292 20.31 38.292 20.311 38.292 20.311 38.292 20.54 38.285 20.788 38.381 21.037 38.568 21.543 38.948 21.587 39.161 22.473 39.076 22.684 41.44 17.957 42.579 17.324 39.161 18.464 39.076 19.349 39.117 19.687 38.652 19.853 38.424 20.061 38.308 20.289 38.294 20.289 38.294 20.29 38.294 20.29 38.294 20.291 38.294 20.292 38.294 20.292 38.294 20.292 38.294 20.292 38.293 20.292 38.292zM13.824 40.634C13.824 40.634 13.825 40.634 13.825 40.634 13.827 40.634 13.831 40.634 13.833 40.634 14.212 40.591 18.229 42.221 18.462 42.579 18.703 42.947 19.771 48.192 19.349 48.699 18.927 49.205 18.042 48.993 17.746 48.656 17.451 48.318 16.985 43.971 16.732 43.591 16.478 43.211 13.82 42.325 13.567 41.945 13.313 41.565 13.524 40.721 13.82 40.636 13.82 40.636 13.823 40.636 13.824 40.636 13.824 40.636 13.824 40.635 13.824 40.634zM25.565 40.886C25.565 40.886 25.566 40.886 25.567 40.886 25.568 40.886 25.569 40.886 25.57 40.886 25.571 40.886 25.572 40.886 25.572 40.886 25.572 40.886 25.574 40.886 25.574 40.886 25.576 40.886 25.578 40.886 25.58 40.886 25.582 40.885 25.585 40.886 25.587 40.886 25.589 40.885 25.593 40.886 25.595 40.886 25.597 40.886 25.601 40.886 25.602 40.886 25.607 40.885 25.611 40.886 25.615 40.886 25.637 40.885 25.653 40.888 25.664 40.891 25.96 40.976 26.045 41.946 25.792 42.326 25.538 42.705 23.259 43.339 23.005 43.719 22.752 44.099 21.867 48.192 21.571 48.53 21.276 48.868 20.304 49.078 19.882 48.571 19.46 48.065 20.586 42.947 21.149 42.494 21.631 42.107 24.9 40.963 25.565 40.886z" />
</svg>
