<svg xmlns="http://www.w3.org/2000/svg">
    <path d="M20.042 1.988C20.037 1.989 20.033 1.99 20.029 1.99 20.001 1.99 19.972 1.99 19.944 1.99 19.93 1.99 19.917 1.99 19.903 1.99 19.889 1.99 19.876 1.99 19.862 1.99 19.848 1.99 19.834 1.99 19.821 1.99 16.331 2.076 12.923 3.883 10.911 6.711 10.444 7.374 10.084 8.109 9.696 8.823 9.585 8.778 9.464 8.753 9.337 8.753 8.81 8.753 8.383 9.18 8.383 9.708 8.383 9.909 8.444 10.096 8.55 10.25 8.07 10.577 7.551 10.857 7.106 11.234 6.116 11.976 4.49 12.687 3.844 13.756 3.652 14.212 3.963 14.8 4.477 14.826 5.551 15.084 7.262 14.926 8.353 14.999 9.009 15.003 9.679 15.021 10.344 15.08 10.169 15.258 9.998 15.439 9.834 15.621 9.215 16.36 8.405 17.062 8.205 18.044 8.172 18.539 8.308 19.006 8.486 19.461 8.377 19.606 8.252 19.805 8.092 20.076 7.496 21.091 7.913 22.224 9.047 22.761 9.15 22.811 9.284 22.86 9.441 22.906 9.126 23.75 8.725 24.747 9.216 25.602 9.666 26.407 10.537 26.785 11.436 26.886 11.325 28.215 10.966 32.522 10.914 33.14 10.855 33.856 10.736 34.454 10.318 35.11 10.271 35.183 10.176 35.374 10.007 35.628 9.841 35.876 9.501 35.827 8.811 35.841 7.377 35.872 7.015 37.5 7.571 38.288 7.861 38.7 8.006 38.996 7.914 39.196 7.825 39.39 6.774 41.153 6.253 42.05 6.062 42.308 5.824 42.176 5.104 42.192 3.287 42.231 3.009 45.155 4.755 45.781 5.331 45.987 5.62 45.493 5.758 45.207 5.88 44.954 11.302 35.646 11.511 35.288 11.928 34.572 12.167 33.797 12.287 33.021 12.378 32.426 12.611 28.601 12.714 26.851 13.191 26.752 13.611 26.513 13.986 26.21 16.894 25.264 23.162 23.995 25.02 24.108 25.02 24.824 25.496 25.72 25.138 25.72 22.631 26.019 14.927 27.205 14.752 27.989 14.633 28.526 14.216 31.867 14.574 32.345 14.783 32.623 17.38 31.509 20.782 30.972 24.185 30.435 26.034 30.196 26.034 30.196 26.034 30.196 26.451 31.152 26.212 31.57 21.318 32.585 14.097 34.016 13.918 34.255 13.74 34.493 6.573 46.754 6.576 46.85 14.156 44.462 17.498 46.969 23.467 45.477 29.436 43.985 33.198 40.762 33.019 40.225 32.84 39.688 27.646 30.674 27.527 30.018 27.398 29.31 25.784 24.026 26.871 22.615 27.452 21.86 29.266 22.049 30.561 22.274 31.202 22.297 32.027 21.996 32.124 21.282 32.236 19.596 30.842 18.203 31.056 16.503 31.211 15.515 31.459 14.527 31.569 13.529 31.863 11.44 31.776 9.199 30.714 7.328 29.356 4.82 26.794 3.114 24.049 2.47 22.758 2.134 21.426 1.98 20.092 1.988 20.082 1.988 20.071 1.988 20.061 1.988 20.06 1.988 20.059 1.988 20.059 1.988 20.057 1.988 20.056 1.988 20.055 1.988 20.055 1.988 20.053 1.988 20.053 1.988 20.052 1.988 20.05 1.988 20.049 1.988 20.049 1.988 20.048 1.988 20.047 1.988 20.046 1.988 20.043 1.988 20.042 1.988zM20.017 2.948C20.019 2.948 20.02 2.948 20.021 2.948 20.021 2.948 20.023 2.948 20.023 2.948 20.024 2.948 20.026 2.948 20.027 2.948 20.028 2.948 20.031 2.948 20.032 2.948 20.033 2.948 20.034 2.948 20.034 2.948 20.045 2.948 20.056 2.948 20.066 2.948 21.376 2.941 22.686 3.092 23.947 3.436 26.298 4.008 28.816 5.662 29.554 7.008 30.278 8.329 30.124 9.753 29.094 10.126 26.644 11.014 25.567 7.614 21.872 7.977 18.231 8.335 16.381 10.304 14.113 12.513 14.113 12.513 14.113 12.514 14.113 12.515 14.113 12.515 14.113 12.516 14.113 12.516 14.113 12.517 14.113 12.518 14.113 12.518 14.114 12.519 14.115 12.522 14.115 12.522 14.229 12.648 17.37 12.968 20.737 14.245 24.126 15.53 23.916 18.159 30.343 18.408 30.626 19.254 31.071 20.051 31.162 20.948 31.263 21.264 30.843 21.316 30.63 21.31 29.367 21.099 28.09 20.968 26.807 20.911 25.09 20.723 23.716 20.579 21.994 20.453 20.769 20.415 19.483 19.888 18.527 19.098 17.454 18.32 16.796 17.244 15.907 16.295 14.388 14.73 12.113 14.223 9.997 14.09 8.492 13.948 6.972 14.138 5.471 13.988 6.068 13.248 6.807 12.642 7.569 12.083 8.226 11.529 9.036 11.174 9.671 10.604 9.672 10.604 9.674 10.602 9.675 10.602 9.675 10.602 9.677 10.6 9.677 10.6 10.028 10.467 10.279 10.134 10.292 9.74 10.71 9.011 11.053 8.235 11.518 7.531 13.34 4.766 16.602 3.015 19.909 2.952 19.914 2.952 19.917 2.951 19.922 2.95 19.922 2.95 19.924 2.95 19.924 2.95 19.924 2.95 19.925 2.95 19.926 2.95 19.926 2.95 19.927 2.95 19.927 2.95 19.929 2.95 19.933 2.95 19.935 2.95 19.935 2.95 19.937 2.95 19.937 2.95 19.938 2.95 19.941 2.95 19.942 2.95 19.943 2.95 19.944 2.95 19.944 2.95 19.945 2.95 19.946 2.95 19.946 2.95 19.949 2.95 19.953 2.95 19.956 2.95 19.971 2.95 19.988 2.95 20.004 2.95 20.009 2.95 20.013 2.949 20.017 2.948zM13.511 9.256C13.001 9.275 12.594 9.695 12.594 10.21 12.594 10.737 13.021 11.166 13.549 11.166 14.076 11.166 14.503 10.737 14.503 10.21 14.503 9.683 14.076 9.256 13.549 9.256 13.536 9.256 13.523 9.255 13.511 9.256zM17.177 10.246C17.179 10.246 17.181 10.246 17.182 10.246 17.183 10.246 17.184 10.246 17.184 10.246 17.185 10.246 17.187 10.246 17.188 10.246 17.188 10.246 17.19 10.246 17.19 10.246 17.191 10.246 17.193 10.246 17.194 10.246 17.194 10.246 17.195 10.246 17.196 10.246 17.196 10.246 17.199 10.246 17.199 10.246 17.205 10.245 17.21 10.246 17.216 10.246 17.217 10.246 17.218 10.246 17.218 10.246 17.22 10.246 17.223 10.246 17.226 10.246 17.226 10.246 17.227 10.246 17.227 10.246 17.244 10.245 17.26 10.246 17.276 10.246 17.803 10.246 18.231 10.673 18.231 11.2 18.231 11.727 17.803 12.155 17.276 12.155 16.749 12.155 16.322 11.727 16.322 11.2 16.322 10.707 16.697 10.297 17.177 10.246zM21.887 11.618C21.889 11.618 21.891 11.618 21.892 11.618 21.893 11.618 21.894 11.618 21.894 11.618 21.895 11.618 21.897 11.618 21.898 11.618 21.898 11.618 21.9 11.618 21.9 11.618 21.901 11.618 21.903 11.618 21.904 11.618 21.904 11.618 21.905 11.618 21.906 11.618 21.906 11.618 21.909 11.618 21.909 11.618 21.915 11.618 21.92 11.619 21.926 11.618 21.927 11.618 21.928 11.618 21.928 11.618 21.93 11.618 21.933 11.618 21.936 11.618 21.936 11.618 21.937 11.618 21.937 11.618 21.94 11.618 21.944 11.618 21.947 11.618 21.947 11.618 21.948 11.618 21.949 11.618 21.963 11.618 21.977 11.618 21.992 11.618 22.519 11.618 22.946 12.045 22.946 12.573 22.946 13.1 22.519 13.529 21.992 13.529 21.465 13.529 21.037 13.1 21.037 12.573 21.037 12.082 21.41 11.672 21.887 11.618zM26.001 13.885C26.001 13.885 26.002 13.885 26.002 13.885 26.003 13.885 26.006 13.885 26.006 13.885 26.007 13.885 26.009 13.885 26.01 13.885 26.024 13.885 26.037 13.887 26.051 13.887 26.578 13.887 27.006 14.314 27.006 14.841 27.006 15.369 26.578 15.796 26.051 15.796 25.524 15.796 25.095 15.369 25.095 14.841 25.095 14.343 25.479 13.93 25.967 13.887 25.967 13.887 25.968 13.887 25.969 13.887 25.969 13.887 25.97 13.887 25.971 13.887 25.971 13.887 25.972 13.887 25.972 13.887 25.973 13.887 25.974 13.887 25.974 13.887 25.977 13.887 25.98 13.887 25.982 13.887 25.982 13.887 25.983 13.887 25.984 13.887 25.984 13.887 25.985 13.887 25.986 13.887 25.988 13.887 25.991 13.887 25.993 13.887 25.993 13.887 25.995 13.887 25.995 13.887 25.995 13.887 25.997 13.887 25.997 13.887 25.997 13.887 26 13.885 26.001 13.885zM11.344 15.398 12.049 16.754 14.595 16.42C14.655 16.462 14.716 16.504 14.775 16.548 15.908 17.444 16.478 18.94 17.591 19.85 17.631 19.886 17.671 19.923 17.711 19.958 16.772 21.297 15.798 22.611 14.794 23.903 14.129 24.684 13.509 25.691 12.437 25.923 11.622 25.992 10.635 25.94 10.112 25.223 9.695 24.528 10.191 23.776 10.404 23.088 12.179 23.274 14.733 22.791 14.239 19.598 13.105 21.15 11.256 21.269 10.897 19.18 10.897 19.18 10.002 19.18 9.405 19.12 9.396 19.119 9.387 19.119 9.379 19.118 9.257 18.799 9.169 18.471 9.167 18.125 9.454 17.404 10.033 16.844 10.541 16.268 10.75 16.039 11.115 15.621 11.344 15.398zM19.279 21.288C19.857 21.955 20.431 22.625 21.009 23.292 19.81 23.522 18.611 23.754 17.411 23.982 18.005 23.127 18.597 22.271 19.191 21.415 19.22 21.373 19.249 21.33 19.279 21.288zM21.491 33.779C21.495 33.779 21.5 33.779 21.504 33.779 21.508 33.779 21.511 33.779 21.516 33.779 21.52 33.779 21.525 33.779 21.529 33.779 21.533 33.779 21.538 33.779 21.542 33.779 21.567 33.778 21.591 33.779 21.617 33.779 22.704 33.779 23.587 34.66 23.587 35.748 23.587 36.835 22.704 37.718 21.617 37.718 20.529 37.718 19.648 36.835 19.648 35.748 19.648 34.702 20.462 33.843 21.491 33.779zM24.364 35.391C24.4 35.417 25.559 36.236 25.676 36.882 25.796 37.539 25.854 39.508 26.212 39.747 26.571 39.986 27.884 40.105 27.765 41.18 27.646 42.254 27.049 42.731 26.332 42.552 25.616 42.373 24.543 42.254 21.857 42.552 19.171 42.85 16.842 43.925 15.827 44.045 14.812 44.164 14.216 42.971 14.634 42.016 15.052 41.061 15.946 41.479 16.125 40.941 16.304 40.404 16.544 37.598 18.216 36.106 18.753 37.24 19.588 37.836 19.588 37.836 19.588 37.836 17.858 41 18.276 41.358 18.693 41.716 23.885 41.06 24.184 40.523 24.482 39.986 23.467 37.658 23.467 37.658 23.467 37.658 24.005 37.121 24.244 36.584 24.475 36.063 24.37 35.43 24.364 35.391z" />
</svg>
