<svg xmlns="http://www.w3.org/2000/svg">
    <path d="M6.402 2.106C5.071 2.181 4.012 3.289 4.012 4.639 4.012 5.902 4.938 6.95 6.149 7.14 6.196 7.684 6.259 8.277 6.29 8.859 6.374 10.463 7.47 22.49 7.008 23.04 6.527 23.612 4.475 23.251 3.209 23.209 1.944 23.166 1.858 25.067 3.209 25.151 4.358 25.223 5.691 25.386 7.077 25.356 7.117 25.642 7.153 25.972 7.177 26.332 7.261 27.641 5.827 28.993 5.236 29.752 4.645 30.512 4.772 31.271 5.405 31.44 6.027 31.606 5.699 31.819 5.699 32.199 5.699 32.579 5.606 33.172 6.08 33.677 6.713 34.352 6.074 34.872 6.121 35.914 6.157 36.717 6.732 37.331 8.062 37.837 8.853 40.866 8.436 44.532 8.317 45.96 12.242 45.369 21.864 43.047 22.919 42.414 22.75 41.106 21.949 36.462 22.075 35.661 22.18 35 21.884 34.454 21.423 34.376 21.368 32.747 21.874 31.73 23.172 30.216 24.915 28.183 24.292 24.233 23.108 23.497 23.506 17.171 21.392 9.958 20.725 7.213 20.008 4.259 19.586 3.794 18.826 3.836 18.293 3.866 12.595 4.207 9.076 4.582 9.046 3.21 7.922 2.106 6.543 2.106 6.526 2.106 6.51 2.105 6.494 2.106 6.483 2.106 6.473 2.105 6.462 2.106 6.457 2.106 6.453 2.105 6.447 2.106 6.442 2.106 6.437 2.105 6.432 2.106 6.427 2.106 6.422 2.105 6.417 2.106 6.412 2.106 6.407 2.105 6.402 2.106zM17.716 4.948C17.721 4.948 17.726 4.948 17.731 4.948 17.751 4.948 17.771 4.948 17.791 4.948 18.595 4.943 18.974 4.997 19.079 5.061 19.29 5.187 19.84 6.579 19.544 6.832 19.249 7.086 15.534 7.044 15.365 7.382 15.196 7.719 15.955 20.719 16.208 21.056 16.462 21.394 21.612 20.465 21.781 20.719 21.95 20.972 22.034 22.239 21.697 22.408 21.359 22.577 19.079 22.871 15.28 23.293 11.482 23.715 8.864 23.928 8.695 23.717 8.526 23.506 8.4 22.576 8.78 22.112 9.16 21.648 13.846 21.732 14.183 21.268 14.521 20.804 13.591 7.677 13.253 7.466 12.916 7.255 8.064 8.437 7.726 8.226 7.388 8.015 7.219 6.496 7.514 6.285 7.81 6.074 10.301 5.524 13.93 5.186 15.66 5.025 16.861 4.96 17.669 4.95 17.685 4.95 17.701 4.949 17.716 4.948zM7.936 12.489C11.481 12.954 11.186 17.933 8.105 18.397 7.894 16.498 7.556 13.502 7.936 12.489zM14.189 24.862C14.189 24.862 9.96 35.881 9.674 36.388 9.342 36.976 8.38 36.726 7.936 36.504 7.345 36.209 7.262 35.449 7.473 35.111 7.684 34.774 7.599 34.395 7.388 34.057 7.177 33.72 7.514 33.255 7.852 33.002 8.189 32.749 8.696 31.82 8.738 31.44 8.781 31.06 7.77 31.349 6.755 31.059 5.832 30.796 7.045 29.503 7.882 28.648 8.139 28.963 8.482 29.347 8.654 29.372 8.95 29.414 11.946 28.275 12.072 27.853 12.184 27.48 9.098 26.71 8.38 26.537 8.336 26.385 8.307 26.232 8.317 26.079 8.338 25.728 8.452 25.515 8.692 25.254 9.888 25.167 11.972 25.019 14.189 24.862zM17.935 28.161C17.937 28.16 17.939 28.161 17.941 28.161 17.941 28.161 17.943 28.161 17.943 28.161 17.944 28.161 17.946 28.161 17.947 28.161 17.947 28.161 17.948 28.161 17.948 28.161 17.95 28.161 17.954 28.161 17.956 28.161 17.956 28.161 17.957 28.161 17.958 28.161 18.092 28.151 18.239 28.211 18.404 28.359 19.439 29.291 18.662 30.651 18.404 31.144 18.121 31.685 17.63 32.374 17.032 32.467 16.164 32.603 16.296 33.492 16.842 33.592 18.173 33.837 18.615 32.284 19.585 33.002 20.197 33.454 20.259 34.301 19.771 34.894 19.095 35.154 18.189 35.477 16.968 35.788 15.891 36.062 13.859 36.399 11.992 36.682L14.187 30.971C15.644 30.848 16.475 30.637 16.883 29.709 17.199 28.992 17.498 28.214 17.935 28.161zM19.137 36.842C19.138 36.842 19.139 36.842 19.139 36.842 19.141 36.842 19.143 36.842 19.145 36.842 19.145 36.842 19.146 36.842 19.147 36.842 19.147 36.842 19.148 36.842 19.148 36.842 19.15 36.842 19.153 36.842 19.154 36.842 19.154 36.842 19.156 36.842 19.156 36.842 19.156 36.842 19.157 36.842 19.158 36.842 19.159 36.842 19.16 36.842 19.162 36.842 19.162 36.842 19.163 36.842 19.163 36.842 19.182 36.841 19.195 36.841 19.205 36.842 19.6 36.891 19.712 37.898 19.501 38.278 19.29 38.658 11.134 40.775 10.891 40.431 10.568 39.974 10.708 38.864 11.185 38.657 11.818 38.382 18.334 36.917 19.137 36.842zM19.548 39.795C19.548 39.795 19.549 39.795 19.55 39.795 19.55 39.795 19.551 39.795 19.552 39.795 19.552 39.795 19.553 39.795 19.553 39.795 19.554 39.795 19.555 39.795 19.555 39.795 19.557 39.795 19.559 39.795 19.561 39.795 19.561 39.795 19.562 39.795 19.563 39.795 19.573 39.795 19.58 39.796 19.585 39.797 19.98 39.846 20.093 40.851 19.882 41.231 19.671 41.611 11.2 44.005 10.932 43.68 10.609 43.288 10.752 42.162 11.228 41.908 11.844 41.58 18.849 39.852 19.542 39.797 19.542 39.797 19.544 39.797 19.544 39.797 19.544 39.797 19.546 39.797 19.546 39.797 19.546 39.797 19.548 39.795 19.548 39.795z" />
</svg>
