<svg xmlns="http://www.w3.org/2000/svg">
    <path d="M25.352 4.54C25.347 4.54 25.344 4.542 25.339 4.542 23.358 4.599 21.996 6.671 18.514 6.722 15.314 6.77 13.58 4.772 11.169 5.204 10.01 5.411 9.653 5.965 9.59 7.341 9.434 7.31 9.282 7.295 9.135 7.298 7.617 7.326 6.659 9.058 7.132 10.527 5.961 11.631 4.75 12.917 3.709 14.146 5.152 16.055 7.464 17.273 9.902 17.209 9.984 18.793 10.053 20.052 9.93 20.963 9.78 22.07 10.024 23.01 11.008 23.076 11.045 24.124 10.909 24.866 10.412 25.336 9.652 26.053 8.977 26.685 8.512 27.192 8.048 27.698 7.921 28.248 8.512 29.219 8.579 29.329 8.64 29.447 8.694 29.573 7.667 30.464 7.118 31.94 7.16 32.806 7.192 33.451 7.702 34.169 8.602 34.441 8.462 35.367 8.482 36.203 8.891 36.816 9.398 37.576 10.116 38.041 11.846 38.041 12.08 38.041 12.303 38.057 12.514 38.084 11.378 42.957 10.157 48.256 10.157 48.256 10.157 48.256 27.419 45.342 27.461 44.667 27.493 44.154 26.913 39.266 27.039 37.831 27.164 36.418 27.493 34.84 26.537 34.872 26.521 34.872 26.507 34.874 26.492 34.876 26.472 34.877 26.45 34.879 26.426 34.881 26.864 33.836 27.404 33.256 28.432 32.005 30.374 29.641 30.67 27.446 29.825 24.998 29.778 24.859 29.722 24.722 29.66 24.586 30.917 16.496 27.522 4.931 26.07 4.613 25.834 4.562 25.61 4.538 25.393 4.54 25.384 4.54 25.374 4.54 25.365 4.54 25.363 4.54 25.359 4.54 25.357 4.54 25.356 4.54 25.353 4.54 25.352 4.54zM9.36 8.277C9.363 8.277 9.366 8.277 9.369 8.277 9.37 8.277 9.371 8.277 9.371 8.277 9.373 8.277 9.375 8.277 9.377 8.277 9.377 8.277 9.378 8.277 9.379 8.277 9.538 8.271 9.706 8.309 9.875 8.399 10.976 8.983 10.369 10.32 9.469 10.932 9.582 12.597 9.762 14.007 9.907 15.67 8.108 15.771 6.452 15.159 5.224 13.896 5.986 13.069 7.521 11.52 8.329 10.735 7.881 9.621 8.509 8.33 9.36 8.277zM26.681 8.517C26.681 8.517 26.683 8.517 26.683 8.517 26.683 8.517 26.685 8.518 26.685 8.519 26.685 8.519 26.685 8.52 26.685 8.521 26.736 8.605 27.124 9.836 27.609 11.472 26.364 12.738 20.645 13.603 16.867 12.737 16.023 14.827 14.399 17.381 11.128 17.339 11.128 17.339 11.065 15.419 11.128 14.342 11.845 14.026 14.04 12.906 15.116 9.445 17.142 10.036 21.954 10.817 26.681 8.517zM18.527 21.762C18.912 21.757 19.307 21.767 19.712 21.794 19.318 23.156 18.654 25.301 17.966 26.856 16.826 29.431 15.559 31.246 15.559 31.246 15.559 31.246 16.382 32.132 17.417 32.132 18.472 32.132 19.485 31.542 19.485 31.542 19.485 31.542 20.033 32.512 20.835 32.892 21.252 33.089 21.932 33.027 22.706 32.618L25.26 34.384C25.162 34.593 25.067 34.818 24.977 35.059 22.739 35.36 18.581 35.992 15.005 36.771 15.289 35.659 15.583 34.424 15.56 34.157 12.479 36.816 11.888 36.647 10.706 36.563 9.524 36.479 9.524 35.76 9.65 35.042 9.67 34.934 9.711 34.763 9.765 34.546 11.091 34.49 13.041 34.134 14.083 32.764 13.154 32.469 13.112 31.922 13.28 30.822 13.434 29.813 12.521 28.776 10.702 28.816 10.581 28.818 10.457 28.825 10.327 28.838 10.152 28.855 9.983 28.889 9.821 28.937 9.521 28.371 9.494 28.077 9.99 27.488 10.449 26.942 11.24 26.221 11.752 25.497 12.043 25.902 12.403 26.363 12.605 26.476 12.985 26.687 15.305 25.927 15.559 25.801 15.812 25.674 15.939 25.167 15.939 25.167L12.251 23.305C12.242 23.164 12.23 23.021 12.217 22.881 13.579 22.521 15.79 21.792 18.527 21.762zM20.84 21.91C20.951 21.925 21.061 21.942 21.172 21.961 24.713 22.54 27.516 24.788 28.648 25.823 29.124 27.078 29.218 28.143 28.432 29.768 27.7 31.283 26.771 31.997 25.944 33.194L23.767 31.87C24.156 31.525 24.549 31.095 24.93 30.571 25.964 29.145 26.34 26.149 24.93 25.506 23.717 24.953 22.169 25.406 22.144 25.675 22.095 26.2 22.016 27.236 21.172 28.502 20.328 29.769 18.893 31.203 16.952 30.824 18.555 28.436 20.184 24.284 20.84 21.91zM23.409 26.802C23.415 26.802 23.421 26.802 23.426 26.802 23.434 26.801 23.442 26.802 23.45 26.802 24.176 26.786 25.149 27.22 24.887 28.502 24.509 30.346 22.159 32.17 21.088 31.542 20.476 31.183 21.085 30.055 21.739 29.164 22.36 28.317 22.667 27.325 22.734 27.109 22.788 26.936 23.067 26.817 23.409 26.802zM10.571 30.017C10.577 30.017 10.582 30.018 10.588 30.017 10.595 30.017 10.603 30.018 10.61 30.017 10.621 30.017 10.63 30.018 10.64 30.017 10.654 30.017 10.668 30.018 10.682 30.017 10.7 30.017 10.719 30.018 10.738 30.017 10.763 30.017 10.788 30.018 10.813 30.017 11.21 30.014 11.647 30.033 11.904 30.351 11.941 31.069 11.766 31.859 12.084 32.547 11.213 32.922 10.148 33.232 9.15 33.055 8.799 33.06 8.471 32.809 8.473 32.442 8.638 31.357 9.369 30.203 10.52 30.019 10.537 30.019 10.554 30.018 10.571 30.017zM20.981 38.506C20.981 38.505 20.983 38.506 20.983 38.506 20.985 38.506 20.987 38.505 20.989 38.506 20.989 38.506 20.99 38.506 20.99 38.506 20.991 38.506 20.992 38.506 20.992 38.506 20.994 38.506 20.996 38.505 20.998 38.506 20.998 38.506 20.999 38.506 21 38.506 21 38.505 21.001 38.506 21.002 38.506 21.003 38.506 21.004 38.505 21.005 38.506 21.006 38.506 21.007 38.506 21.007 38.506 21.024 38.504 21.037 38.505 21.047 38.506 21.447 38.524 22.012 39.327 21.763 40.489 21.51 41.671 20.916 42.198 20.456 42.304 19.907 42.431 12.859 43.951 12.605 43.782 12.352 43.613 13.114 40.052 13.49 39.983 13.872 39.913 20.165 38.581 20.981 38.506zM18.836 39.475C18.207 39.526 17.711 40.057 17.711 40.699 17.711 41.375 18.26 41.924 18.935 41.924 19.611 41.924 20.16 41.375 20.16 40.699 20.16 40.024 19.611 39.475 18.935 39.475 18.933 39.475 18.931 39.475 18.928 39.475 18.915 39.475 18.902 39.474 18.889 39.475 18.883 39.475 18.879 39.475 18.874 39.475 18.868 39.475 18.864 39.475 18.859 39.475 18.857 39.475 18.853 39.475 18.851 39.475 18.849 39.475 18.845 39.475 18.844 39.475 18.841 39.475 18.839 39.475 18.836 39.475z" />
</svg>
