<svg xmlns="http://www.w3.org/2000/svg">
    <path d="M21.588 3.15C15.788 3.24 10.558 6.127 10.974 7.539 11.378 8.913 13.481 12.913 13.218 17.471 12.579 17.784 9.575 19.389 9.877 21.804 10.091 23.516 11.194 24.419 12.828 24.804 12.935 25.542 13.08 26.553 13.226 27.596 12.633 27.707 11.893 27.879 11.608 28.093 11.101 28.473 10.468 29.571 9.371 31.808 8.319 33.952 6.964 34.72 7.091 35.184 7.217 35.649 9.118 36.999 9.118 36.999 9.118 36.999 5.233 38.349 3.967 38.94 2.701 39.531 1.123 40.769 2.996 41.685 4.895 42.614 4.843 42.271 7.725 44.638 10.001 46.509 11.021 47.863 11.565 48.521 12.366 49.492 13.085 47.762 14.182 45.947 15.048 44.514 16.123 43.625 15.279 41.979 14.572 40.6 13.38 38.012 13.507 36.45 13.63 34.937 13.95 34.336 13.97 34.299 13.988 34.31 14.562 34.643 14.645 35.1 14.73 35.564 14.664 37.57 15.151 38.899 15.616 40.165 16.673 41.389 17.306 40.714 17.939 40.038 19.879 36.661 20.934 35.691 21.989 34.72 22.918 34.045 23.171 34.509 23.424 34.974 21.314 37.422 18.697 41.685 16.08 45.948 13.337 50.716 12.493 52.573 11.649 54.43 11.987 54.389 13.295 54.009 14.69 53.198 29.983 49.327 31.233 49.155 32.513 48.979 33.09 48.353 32.077 47.171 31.064 45.989 25.143 39.789 24.691 38.646 23.974 36.831 24.101 36.703 25.578 38.012 26.428 38.765 27.307 39.784 27.054 38.434 26.801 37.083 26.252 33.961 26.126 33.159 26.001 32.368 26.041 31.766 26.716 31.513 27.392 31.26 27.714 31.657 27.9 32.398 28.153 33.411 28.743 35.31 28.996 36.366 29.175 37.109 29.208 37.421 29.968 37.168 30.727 36.915 33.682 35.65 34.61 35.312 35.539 34.974 36.088 34.89 36.425 35.565 36.763 36.24 35.707 36.577 35.116 36.915 34.526 37.253 29.966 39.195 29.291 39.617 28.615 40.039 28.362 40.376 29.291 41.389 30.219 42.402 32.33 44.512 33.174 45.356 34.018 46.2 34.176 46.157 35.707 45.99 38.028 45.737 41.195 42.908 41.701 42.148 42.208 41.388 42.377 40.63 41.533 40.123 40.689 39.617 39.168 38.434 38.746 38.012 38.324 37.59 37.649 37.422 38.071 36.578 38.493 35.733 38.154 35.775 37.395 35.016 36.635 34.256 35.23 32.73 35.032 30.836 34.652 27.206 33.635 28.278 34.125 26.469 34.692 24.373 35.608 24.607 36.277 24.729 36.617 24.868 36.88 24.828 37.057 24.506 37.922 22.936 37.8 20.124 33.091 18.848 32.898 13.747 34.573 10.699 36.129 6.525 30.22 3.486 27.863 3.15 21.864 3.15 21.795 3.15 21.725 3.149 21.656 3.15 21.633 3.15 21.611 3.15 21.588 3.15zM32.75 7.211C32.754 7.211 32.759 7.211 32.763 7.211 32.768 7.211 32.772 7.211 32.776 7.211 32.781 7.211 32.785 7.211 32.79 7.211 32.798 7.211 32.807 7.211 32.816 7.211 32.824 7.211 32.833 7.211 32.842 7.211 33.454 7.198 33.892 7.332 33.933 7.408 33.934 7.409 33.935 7.411 33.935 7.412 34.014 7.639 33.149 9.475 32.512 11.623 31.875 13.772 31.529 16.065 31.233 16.149 30.642 16.318 30.39 15.728 29.546 15.643 28.702 15.559 28.363 16.065 27.856 15.559 27.35 15.052 27.603 13.11 29.122 9.818 30.063 7.778 31.656 7.259 32.75 7.211zM18.468 14.138C18.478 14.137 18.487 14.138 18.496 14.138 18.506 14.137 18.517 14.138 18.526 14.138 18.536 14.137 18.547 14.138 18.556 14.138 18.577 14.137 18.598 14.138 18.618 14.138 19.097 14.135 19.422 14.176 19.563 14.314 19.817 14.56 19.817 15.261 19.878 16.485 19.955 18.03 19.904 18.731 19.605 19.039 19.328 19.324 18.833 19.305 17.625 19.335 16.446 19.365 15.954 19.379 15.682 19.118 15.41 18.856 15.343 18.155 15.343 16.901 15.343 15.648 15.276 14.791 15.478 14.511 15.672 14.24 16.418 14.24 17.431 14.186 17.824 14.166 18.171 14.144 18.468 14.138zM17.478 15.257C17.453 15.258 17.428 15.26 17.401 15.261 16.999 15.268 16.595 15.514 16.625 16.633 16.655 17.752 16.67 18.186 17.401 18.186 18.297 18.186 18.386 17.768 18.341 16.35 18.309 15.339 18.249 15.253 17.6 15.257 17.585 15.257 17.569 15.257 17.553 15.257 17.541 15.257 17.53 15.257 17.518 15.257 17.508 15.257 17.499 15.257 17.49 15.257 17.486 15.257 17.482 15.257 17.478 15.257zM28.273 17.466C28.275 17.465 28.278 17.466 28.28 17.466 28.281 17.466 28.282 17.466 28.282 17.466 28.284 17.466 28.287 17.466 28.29 17.466 28.301 17.465 28.312 17.466 28.323 17.466 29.773 17.451 30.832 17.961 30.811 18.343 30.775 19.023 27.551 18.48 23.086 20.919 16.661 24.431 15.66 23.662 15.66 23.282 15.66 22.902 16.839 22.601 18.487 21.72 20.302 20.749 23.172 19.231 25.747 18.049 26.622 17.647 27.489 17.484 28.254 17.468 28.26 17.467 28.266 17.466 28.273 17.466zM28.98 21.542C29.788 21.514 30.637 21.908 32.036 22.523 33.766 23.282 33.385 23.999 33.258 25.097 33.132 26.194 32.5 27.292 31.867 27.334 31.234 27.376 31.53 26.701 31.445 25.984 31.361 25.266 31.107 24.253 30.305 24.253 29.503 24.253 29.545 25.351 29.418 26.237 29.292 27.123 28.659 28.009 27.984 28.515 27.323 29.01 26.057 29.587 25.961 29.612 26.049 29.519 27.157 25.832 27.476 24.76 27.94 23.198 27.393 21.931 28.406 21.636 28.6 21.579 28.788 21.549 28.98 21.542zM26.28 21.758C26.28 21.758 26.281 21.757 26.281 21.758 26.563 23.023 26.721 25.541 23.7 31.022 22.117 33.892 20.724 34.023 18.909 34.213 15.106 34.611 14.373 33.067 14.675 31.935 15.231 31.5 15.881 31.091 16.291 31.091 17.389 31.091 17.896 31.766 19.162 31.598 20.428 31.429 21.442 29.824 21.442 29.824 21.442 29.824 20.006 30.077 19.246 29.149 18.636 28.403 18.033 27.988 17.257 27.808 17.187 27.353 17.146 26.815 17.221 26.363 17.301 25.883 17.476 25.31 17.638 24.838 17.811 24.808 17.983 24.775 18.153 24.739 18.153 24.739 18.155 24.739 18.155 24.739 18.609 24.761 18.764 24.95 19.119 25.35 19.794 26.11 20.512 26.616 21.99 26.194 23.208 25.846 23.973 24.844 24.058 23.747 24.106 23.117 24.363 22.666 24.781 22.318 24.782 22.318 24.783 22.317 24.783 22.316 24.784 22.316 24.786 22.316 24.787 22.316 24.787 22.316 24.789 22.315 24.789 22.314 24.789 22.314 24.791 22.313 24.791 22.313 25.288 22.112 25.783 21.924 26.28 21.758zM14.27 25.011C14.821 25.048 15.408 25.048 16.023 25.018L15.528 27.99C15.17 28.142 14.786 28.34 14.418 28.547 14.318 27.224 14.282 25.913 14.27 25.011z" />
</svg>
