<svg xmlns="http://www.w3.org/2000/svg">
    <path d="M15.779 4.817C14.534 4.872 13.982 5.554 13.863 7.677 13.719 7.685 13.573 7.695 13.426 7.703 11.654 7.803 11.021 8.674 10.514 10.193 10.008 11.713 8.742 18.76 8.827 18.844 8.236 22.474 8.927 22.705 10.895 22.981 11.359 23.046 11.869 23.084 12.395 23.114 11.746 24.066 11.098 25.021 10.503 26.007 10.503 26.007 10.502 26.007 10.501 26.007 9.99 26.249 9.179 26.346 8.178 25.697 8.178 25.771 8.568 28.665 10.494 28.694 10.214 29.639 9.979 30.671 10.495 31.561 10.844 32.092 11.407 32.338 12.01 32.455L11.964 34.696C9.689 34.909 7.419 35.256 5.202 35.8 4.121 36.189 3.162 37.278 3.342 38.487 3.54 39.299 4.465 39.668 5.236 39.606 6.28 39.668 7.326 39.665 8.371 39.642 7.934 40.197 7.953 40.997 8.319 41.584 8.727 42.512 9.14 43.459 9.678 44.318 9.353 45.395 9.027 46.472 8.701 47.549 12.982 48.777 17.618 48.684 21.88 47.408 22.357 47.603 22.834 47.799 23.311 47.995 23.762 47.745 24.152 47.424 24.483 47.052 27.759 48.34 29.861 48.957 30.485 48.437 31.245 47.804 32.636 46.791 32.763 44.301 32.89 41.811 31.962 39.237 30.147 38.477 29.66 38.273 28.996 37.966 28.269 37.634 29.484 36.495 30.377 35.65 30.845 33.117 31.313 30.582 30.254 28.434 28.846 26.198 29.471 23.469 29.909 19.272 29.508 16.945 29.086 14.497 28.766 10.166 26.722 9.644 23.141 8.729 20.713 8.212 18.901 7.932 18.873 5.615 18.235 5.018 16.554 4.851 16.324 4.828 16.112 4.816 15.916 4.817 15.9 4.818 15.885 4.817 15.869 4.817 15.859 4.818 15.849 4.817 15.839 4.817 15.834 4.818 15.829 4.817 15.824 4.817 15.819 4.818 15.814 4.817 15.809 4.817 15.804 4.818 15.799 4.817 15.794 4.817 15.789 4.818 15.784 4.817 15.779 4.817zM18.102 8.909C18.899 9.105 19.696 9.3 20.493 9.494 20.606 10.22 20.762 11.258 20.898 12.257 21.144 14.07 20.97 15.554 21.534 17.311 22.079 18.422 23.492 19.422 24.751 19.088 25.887 18.634 26.196 17.355 26.223 16.227 26.267 15.304 25.286 12.192 24.599 10.508 25.349 10.672 26.134 10.723 26.787 11.155 28.21 12.958 28.688 15.438 28.216 17.674 27.934 19.522 26.516 21.282 24.599 21.542 22.07 21.846 19.634 19.923 19.038 17.509 18.966 16.898 18.911 16.286 18.862 15.672 17.475 18.072 15.715 18.222 14.405 18.222 12.972 18.222 10.049 16.55 10.705 13.804 12.581 14.466 14.965 16.81 18.755 14.241 18.63 12.512 18.496 10.784 18.13 9.087 18.121 9.027 18.112 8.968 18.102 8.909zM22.653 22.855C22.659 22.855 22.665 22.855 22.672 22.855 22.678 22.855 22.684 22.855 22.69 22.855 23.69 22.831 24.84 23.791 24.185 24.807 23.563 25.772 22.336 27.851 21.142 29.104 21.067 29.183 20.983 29.265 20.892 29.352 21.761 29.967 22.648 30.554 23.262 30.953 22.471 31.377 20.354 31.466 18.839 31.472 19.584 30.506 20.364 29.854 20.892 29.352 20.517 29.086 20.146 28.816 19.801 28.553 19.744 28.51 19.689 28.466 19.636 28.42 19.635 28.419 19.632 28.416 19.63 28.414 19.63 28.414 19.627 28.413 19.627 28.412 19.626 28.412 19.625 28.411 19.625 28.411 19.624 28.41 19.623 28.409 19.623 28.409 19.623 28.409 19.623 28.407 19.623 28.407 19.623 28.407 19.621 28.405 19.621 28.405 19.619 28.404 19.615 28.401 19.614 28.399 19.612 28.398 19.611 28.397 19.61 28.396 19.603 28.39 19.596 28.385 19.589 28.379 19.585 28.375 19.582 28.371 19.578 28.367 19.578 28.367 19.576 28.366 19.576 28.366 19.575 28.364 19.574 28.363 19.572 28.362 19.572 28.362 19.571 28.36 19.57 28.36 19.57 28.36 19.569 28.36 19.569 28.36 19.568 28.36 19.567 28.358 19.567 28.358 19.564 28.356 19.562 28.353 19.559 28.351 19.558 28.349 19.557 28.348 19.555 28.347 19.553 28.345 19.552 28.343 19.55 28.341 19.55 28.341 19.548 28.34 19.548 28.339 19.548 28.339 19.546 28.339 19.546 28.339 19.546 28.339 19.545 28.338 19.544 28.337 19.544 28.337 19.543 28.336 19.542 28.336 19.542 28.335 19.542 28.334 19.542 28.334 19.542 28.333 19.541 28.332 19.54 28.332 19.54 28.331 19.539 28.33 19.539 28.33 19.538 28.33 19.536 28.328 19.535 28.328 19.535 28.328 19.533 28.327 19.533 28.326 19.533 28.326 19.531 28.325 19.531 28.324 19.531 28.324 19.531 28.323 19.531 28.322 19.531 28.322 19.53 28.321 19.529 28.321 19.528 28.32 19.525 28.318 19.524 28.317 19.523 28.317 19.522 28.315 19.522 28.315 19.521 28.314 19.521 28.314 19.52 28.313 19.519 28.313 19.518 28.312 19.518 28.311 19.517 28.311 19.515 28.31 19.514 28.309 19.514 28.309 19.513 28.308 19.512 28.307 19.512 28.307 19.511 28.306 19.51 28.306 19.51 28.305 19.509 28.304 19.509 28.304 19.507 28.302 19.505 28.298 19.503 28.296 19.503 28.296 19.501 28.295 19.501 28.294 19.501 28.294 19.499 28.294 19.499 28.294 19.499 28.294 19.498 28.293 19.497 28.292 19.497 28.292 19.496 28.291 19.495 28.291 19.495 28.29 19.494 28.287 19.494 28.287 19.493 28.287 19.492 28.285 19.492 28.285 19.492 28.285 19.49 28.285 19.49 28.285 19.49 28.285 19.488 28.283 19.488 28.283 19.488 28.283 19.486 28.281 19.486 28.281 19.486 28.281 19.485 28.278 19.484 28.277 19.484 28.277 19.483 28.276 19.482 28.276 19.481 28.274 19.48 28.273 19.479 28.272 19.477 28.27 19.475 28.268 19.473 28.266 19.473 28.266 19.471 28.265 19.471 28.264 19.471 28.264 19.469 28.264 19.469 28.264 19.469 28.264 19.468 28.263 19.467 28.262 19.467 28.262 19.466 28.261 19.465 28.261 19.465 28.26 19.465 28.259 19.465 28.259 19.465 28.258 19.464 28.257 19.464 28.257 19.463 28.256 19.462 28.255 19.462 28.255 19.461 28.255 19.459 28.253 19.458 28.253 19.458 28.253 19.456 28.252 19.456 28.251 19.456 28.251 19.455 28.25 19.454 28.249 19.454 28.249 19.454 28.248 19.454 28.247 19.454 28.247 19.453 28.246 19.452 28.246 19.452 28.245 19.449 28.244 19.449 28.244 19.448 28.243 19.447 28.242 19.447 28.242 19.447 28.242 19.445 28.24 19.445 28.24 19.445 28.24 19.445 28.238 19.445 28.238 19.434 28.227 19.423 28.217 19.413 28.206 19.411 28.204 19.409 28.203 19.407 28.201 19.406 28.199 19.405 28.198 19.404 28.197 19.402 28.195 19.4 28.193 19.398 28.191 19.396 28.189 19.394 28.188 19.392 28.186 19.391 28.184 19.39 28.183 19.389 28.182 19.387 28.18 19.384 28.176 19.383 28.174 19.382 28.174 19.38 28.171 19.379 28.171 19.377 28.168 19.374 28.166 19.372 28.163 19.371 28.163 19.37 28.162 19.37 28.161 19.363 28.154 19.358 28.148 19.351 28.141 19.349 28.138 19.346 28.136 19.344 28.133 19.343 28.132 19.342 28.13 19.342 28.129 19.339 28.127 19.337 28.125 19.334 28.122 19.33 28.117 19.326 28.112 19.321 28.107 19.32 28.105 19.319 28.104 19.317 28.103 19.316 28.101 19.313 28.097 19.312 28.096 19.311 28.094 19.309 28.093 19.308 28.092 19.302 28.086 19.298 28.079 19.293 28.073 19.293 28.073 19.291 28.071 19.291 28.071 19.289 28.07 19.287 28.067 19.285 28.066 19.285 28.065 19.284 28.064 19.284 28.064 19.283 28.063 19.282 28.061 19.282 28.06 19.279 28.057 19.277 28.055 19.274 28.052 19.274 28.052 19.273 28.051 19.272 28.051 19.272 28.05 19.272 28.049 19.272 28.049 19.271 28.047 19.268 28.045 19.267 28.043 19.266 28.043 19.265 28.042 19.265 28.041 19.265 28.041 19.263 28.038 19.263 28.037 19.262 28.036 19.259 28.033 19.257 28.032 19.257 28.032 19.256 28.03 19.255 28.03 19.255 28.029 19.254 28.027 19.254 28.026 19.253 28.026 19.25 28.023 19.25 28.022 19.248 28.021 19.246 28.017 19.244 28.015 19.241 28.011 19.238 28.008 19.235 28.004 19.235 28.003 19.233 28.002 19.233 28.002 19.227 27.995 19.222 27.988 19.216 27.981 19.216 27.981 19.216 27.98 19.216 27.979 19.214 27.977 19.211 27.975 19.209 27.972 19.203 27.965 19.197 27.958 19.192 27.951 19.192 27.951 19.192 27.95 19.192 27.949 20.548 26.579 20.929 24.76 21.678 23.434 21.895 23.05 22.261 22.874 22.653 22.855zM13.52 23.17C15.035 23.242 16.497 23.34 17.184 23.867 18.071 24.55 18.115 26.343 19.004 27.692 18.176 28.591 17.339 29.482 16.42 30.286 15.584 31.1 14.438 31.621 13.254 31.6 12.596 31.543 11.782 31.623 11.32 31.058 10.928 30.241 11.312 29.358 11.555 28.542 12.683 29.54 15.469 29.702 15.712 26.014 15.141 26.691 12.99 27.586 11.515 26.2 12.131 25.172 12.832 24.175 13.52 23.17zM27.738 27.231C28.836 28.306 29.365 29.947 29.412 31.922 29.464 34.095 29.192 34.524 26.962 37.047 25.78 36.53 24.607 36.066 23.864 35.95 23.86 35.304 23.899 34.386 24.04 33.117 24.217 31.53 24.726 30.305 25.197 29.47 26.162 30.865 26.824 32.748 26.009 35.146 27.57 33.324 28.089 32.093 26.495 28.169 26.938 27.738 27.387 27.433 27.738 27.231zM14.71 32.363C15.62 33.441 15.963 34.866 15.997 35.939 15.099 35.501 14.182 35.063 13.216 34.802L13.261 32.56C13.755 32.565 14.241 32.497 14.71 32.363zM23.185 32.481 22.687 36.229C21.953 36.517 20.788 36.859 19.627 37.067 19.187 37.05 18.746 37.033 18.307 37.017 17.783 36.884 17.313 36.606 16.835 36.349 17.054 34.847 17.5 33.655 18.033 32.695L23.185 32.481zM12.404 35.622 12.526 35.624C13.972 35.959 15.296 36.644 16.617 37.321 16.671 37.363 16.708 37.392 16.724 37.403 16.724 37.403 16.724 37.401 16.724 37.401 16.725 37.393 16.726 37.385 16.726 37.377 17.09 37.563 17.454 37.748 17.821 37.924 17.828 37.925 17.835 37.926 17.842 37.926 17.801 38.606 17.699 39.717 17.446 40.894 17.157 42.24 16.669 43.554 16.39 44.249 15.528 44.344 14.688 44.662 13.835 44.852 13.142 44.914 12.47 45.277 11.761 45.169 10.843 44.673 10.367 43.636 9.912 42.726 9.632 41.97 9.026 41.314 9.022 40.476 9.212 39.86 9.947 39.72 10.482 39.546 10.907 39.548 11.141 38.867 10.705 38.689 9.112 38.585 7.506 38.757 5.907 38.68 5.381 38.589 4.678 38.804 4.308 38.331 4.191 37.622 4.816 37.01 5.425 36.747 7.706 36.155 10.057 35.833 12.404 35.622zM21.732 37.148C21.804 37.151 21.875 37.153 21.946 37.156 21.875 37.153 21.804 37.151 21.732 37.148zM23.96 37.221C23.967 37.221 23.975 37.223 23.982 37.223 23.975 37.223 23.967 37.223 23.96 37.223 23.96 37.223 23.96 37.222 23.96 37.221zM16.728 37.407C16.728 37.407 16.728 37.408 16.728 37.409 16.728 37.409 16.73 37.409 16.73 37.409 16.73 37.408 16.73 37.407 16.73 37.407 16.73 37.407 16.728 37.407 16.728 37.407zM18.595 37.979C20.682 38.11 22.78 38.12 24.869 38.215 25.08 39.556 25.108 40.927 25.064 42.286 25.073 43.965 24.633 45.816 23.251 46.889 21.231 46.165 19.244 45.286 17.24 44.479 17.524 43.862 18.023 42.662 18.312 41.273 18.582 39.979 18.61 38.72 18.595 37.979zM27.305 43.105C27.309 43.105 27.312 43.105 27.316 43.105 27.322 43.105 27.327 43.105 27.333 43.105 27.456 43.101 27.576 43.122 27.693 43.169 28.266 43.397 28.495 44.18 28.201 44.916 27.908 45.652 27.203 46.064 26.63 45.835 26.056 45.606 25.83 44.823 26.124 44.087 26.353 43.513 26.832 43.133 27.305 43.105zM9.704 44.359C9.708 44.366 9.713 44.373 9.717 44.38 9.713 44.373 9.708 44.366 9.704 44.359zM25.797 44.417C25.795 44.429 25.791 44.44 25.788 44.451 25.791 44.44 25.795 44.429 25.797 44.417zM9.775 44.47C9.782 44.48 9.789 44.49 9.796 44.5 9.79 44.49 9.782 44.48 9.775 44.47zM25.78 44.485C25.778 44.496 25.774 44.507 25.771 44.519 25.774 44.507 25.778 44.496 25.78 44.485zM9.886 44.637C9.893 44.647 9.9 44.655 9.907 44.665 9.9 44.655 9.893 44.647 9.886 44.637zM10.152 45.002C10.159 45.011 10.164 45.02 10.171 45.029 10.164 45.02 10.159 45.011 10.152 45.002zM16.409 45.177C16.37 45.188 16.33 45.198 16.291 45.209 16.252 45.219 16.212 45.23 16.173 45.241 16.212 45.23 16.252 45.219 16.291 45.209 16.33 45.198 16.37 45.188 16.409 45.177zM10.299 45.188C10.309 45.201 10.32 45.215 10.33 45.227 10.32 45.215 10.309 45.201 10.299 45.188zM10.411 45.323C10.415 45.328 10.42 45.333 10.424 45.338 10.42 45.333 10.415 45.328 10.411 45.323zM15.82 45.334C15.781 45.345 15.742 45.356 15.702 45.366 15.742 45.356 15.781 45.345 15.82 45.334zM10.443 45.361C10.452 45.371 10.462 45.382 10.471 45.392 10.462 45.382 10.452 45.371 10.443 45.361zM15.524 45.411C15.485 45.421 15.445 45.433 15.406 45.443 15.445 45.433 15.485 45.421 15.524 45.411zM14.992 45.548C14.952 45.558 14.913 45.566 14.874 45.576 14.913 45.566 14.952 45.558 14.992 45.548zM25.417 45.563C25.414 45.57 25.411 45.576 25.407 45.584 25.41 45.577 25.414 45.57 25.417 45.563zM10.75 45.677C10.755 45.681 10.759 45.683 10.764 45.687 10.759 45.683 10.755 45.681 10.75 45.677zM10.795 45.713C10.798 45.715 10.801 45.717 10.803 45.719 10.8 45.717 10.798 45.715 10.795 45.713zM10.822 45.734C10.824 45.735 10.827 45.738 10.829 45.739 10.827 45.737 10.824 45.736 10.822 45.734zM10.91 45.799C10.914 45.803 10.918 45.806 10.923 45.809 10.927 45.812 10.932 45.815 10.936 45.818 10.931 45.815 10.928 45.812 10.923 45.809 10.918 45.806 10.914 45.803 10.91 45.799zM10.938 45.818C10.943 45.821 10.946 45.824 10.951 45.827 10.954 45.829 10.956 45.831 10.959 45.833 10.956 45.832 10.953 45.829 10.951 45.827 10.947 45.825 10.942 45.821 10.938 45.818zM13.794 45.831C13.738 45.844 13.682 45.858 13.627 45.871 13.682 45.858 13.738 45.844 13.794 45.831zM11.05 45.889C11.055 45.892 11.059 45.896 11.064 45.899 11.059 45.896 11.055 45.892 11.05 45.889zM13.509 45.897C13.469 45.906 13.428 45.913 13.389 45.921 13.428 45.913 13.469 45.906 13.509 45.897zM11.139 45.938C11.146 45.942 11.152 45.948 11.159 45.951 11.152 45.947 11.146 45.942 11.139 45.938zM13.21 45.961C13.171 45.969 13.13 45.977 13.09 45.985 13.13 45.977 13.171 45.969 13.21 45.961zM11.199 45.97C11.206 45.973 11.212 45.976 11.219 45.979 11.212 45.976 11.206 45.973 11.199 45.97zM11.266 46.002C11.271 46.004 11.276 46.005 11.281 46.007 11.276 46.005 11.271 46.004 11.266 46.002zM11.296 46.015C11.301 46.017 11.306 46.018 11.311 46.021 11.306 46.018 11.301 46.017 11.296 46.015zM12.912 46.022C12.872 46.031 12.832 46.039 12.792 46.047 12.832 46.039 12.872 46.031 12.912 46.022zM11.365 46.043C11.371 46.045 11.377 46.047 11.382 46.049 11.377 46.047 11.371 46.045 11.365 46.043zM11.444 46.071C11.449 46.073 11.454 46.075 11.459 46.077 11.454 46.075 11.449 46.073 11.444 46.071zM12.612 46.082C12.608 46.084 12.604 46.087 12.599 46.088 12.604 46.086 12.608 46.084 12.612 46.082zM11.547 46.103C11.553 46.105 11.559 46.107 11.564 46.109 11.559 46.107 11.553 46.105 11.547 46.103zM11.62 46.122C11.633 46.125 11.647 46.128 11.66 46.131 11.646 46.128 11.634 46.125 11.62 46.122zM12.459 46.127C12.442 46.131 12.426 46.135 12.41 46.139 12.426 46.135 12.442 46.131 12.459 46.127zM11.718 46.144C11.723 46.145 11.729 46.145 11.735 46.146 11.729 46.145 11.723 46.145 11.718 46.144zM12.361 46.148C12.364 46.148 12.366 46.149 12.369 46.148 12.364 46.149 12.359 46.149 12.354 46.15 12.356 46.149 12.358 46.149 12.361 46.148zM11.75 46.15C11.755 46.151 11.761 46.151 11.767 46.152 11.761 46.151 11.755 46.151 11.75 46.15zM12.327 46.154C12.33 46.153 12.334 46.154 12.337 46.154 12.331 46.155 12.325 46.155 12.32 46.156 12.323 46.155 12.325 46.154 12.327 46.154zM11.8 46.157C11.806 46.158 11.81 46.159 11.815 46.159 11.811 46.159 11.805 46.158 11.8 46.157zM12.303 46.157C12.305 46.157 12.308 46.158 12.31 46.157 12.305 46.158 12.301 46.159 12.295 46.159 12.298 46.159 12.3 46.158 12.303 46.157zM12.262 46.163C12.264 46.163 12.268 46.163 12.271 46.163 12.266 46.164 12.26 46.164 12.254 46.165 12.249 46.166 12.243 46.166 12.237 46.167 12.243 46.166 12.249 46.166 12.254 46.165 12.257 46.165 12.259 46.163 12.262 46.163zM11.924 46.171C11.93 46.171 11.934 46.172 11.939 46.172 11.934 46.172 11.929 46.171 11.924 46.171zM11.956 46.172C11.962 46.173 11.967 46.174 11.973 46.174 11.967 46.174 11.962 46.173 11.956 46.172zM12.155 46.172C12.158 46.172 12.16 46.173 12.162 46.172 12.157 46.173 12.152 46.174 12.147 46.174 12.15 46.174 12.152 46.173 12.155 46.172zM11.997 46.174C12.003 46.175 12.009 46.176 12.014 46.176 12.009 46.176 12.003 46.175 11.997 46.174zM12.106 46.174C12.109 46.174 12.111 46.174 12.114 46.174 12.108 46.175 12.102 46.176 12.097 46.176 12.099 46.176 12.103 46.174 12.106 46.174zM25.032 46.306C25.028 46.312 25.025 46.319 25.021 46.326 25.025 46.32 25.028 46.312 25.032 46.306zM24.67 46.827C24.663 46.836 24.657 46.846 24.65 46.855 24.657 46.846 24.663 46.836 24.67 46.827zM24.618 46.894C24.611 46.903 24.604 46.911 24.597 46.919 24.604 46.91 24.611 46.903 24.618 46.894z" />
</svg>
